<svg class="" version="1.1" viewBox="0 0 512 512" xml:space="preserve" xmlns="http://www.w3.org/2000/svg">
<rect width="512" height="512" rx="80" fill="#2196f3" stroke-linecap="round" stroke-linejoin="round" stroke-width="40"/><g transform="translate(-7.7 -23)" stroke-width="8.8"><g transform="matrix(.91 0 0 .91 24 43)"><path d="m92 123h282v161h-282z" fill="#384c54"/><path d="m46 94v76a23 23 0 0 0 23 23h329a23 23 0 0 0 23-23v-76a23 23 0 0 0-23-23h-329a23 23 0 0 0-23 23z" fill="#455a64"/><path d="m77 131c0 10 8.3 19 19 19 10 0 18-8.3 18-19s-8.3-19-18-19c-10 0-19 8.3-19 19z" fill="#f45558"/><path d="m123 131c0 10 8.3 19 19 19 10 0 18-8.3 18-19s-8.3-19-18-19c-10 0-19 8.3-19 19z" fill="#ffd54f"/><path d="m202 98h191v15h-191zm0 26h191v15h-191zm0 26h191v15h-191z" fill="#384c54"/><path d="m46 238v76a23 23 0 0 0 23 23h329a23 23 0 0 0 23-23v-76a23 23 0 0 0-23-23h-329a23 23 0 0 0-23 23z" fill="#455a64"/><path d="m77 276c0 10 8.3 19 19 19 10 0 18-8.3 18-19s-8.3-19-18-19c-10 0-19 8.3-19 19z" fill="#f45558"/><path d="m123 276c0 10 8.3 19 19 19 10 0 18-8.3 18-19s-8.3-19-18-19c-10 0-19 8.3-19 19z" fill="#ffd54f"/><path d="m202 243h191v15h-191zm0 26h191v15h-191zm0 26h191v15h-191z" fill="#384c54"/></g><g transform="matrix(.91 0 0 .91 35 54)"><path class="" d="m466 207v135a32 32 0 0 1-13 26l-91 67a32 32 0 0 1-38 0l-91-67a32 32 0 0 1-13-26v-135a32 32 0 0 1 23-31l91-27a32 32 0 0 1 18 0l91 27a32 32 0 0 1 23 31z" fill="#5bb774"/><path class="" d="m343 413a3.2 3.2 0 0 1-2-0.65l-91-67a3.3 3.3 0 0 1-1.3-2.6v-135c0-1.4 0.96-2.7 2.3-3.1l91-27h1.9l91 27a3.3 3.3 0 0 1 2.3 3.1v135c0 1-0.49 2-1.3 2.6l-91 67a3.2 3.2 0 0 1-1.9 0.65z" fill="#d9defb"/><g fill="#2196f3"><path class="" d="m388 239-12 12a47 47 0 0 0-33-14 47 47 0 0 0-47 47h-17c0-36 29-64 64-64 18 0 34 7.2 45 19z"/><path class="" d="m306 282-17 30a2.4 2.4 0 0 1-4.1 0l-17-30a2.4 2.4 0 0 1 2.1-3.6h35c1.8 0 3 2 2.1 3.6zm101 2.7c0 35-29 64-64 64a64 64 0 0 1-46-19l12-12a47 47 0 0 0 33 14 47 47 0 0 0 47-47z"/><path class="" d="m379 287 17-30a2.4 2.4 0 0 1 4.1 0l17 30a2.4 2.4 0 0 1-2.1 3.6h-35a2.4 2.4 0 0 1-2.1-3.6z"/></g></g></g>
</svg>
