<svg class="" version="1.1" viewBox="0 0 512 512" xmlns="http://www.w3.org/2000/svg">
  <path d="m256 0c141.82 0 256 114.18 256 256s-114.18 256-256 256-256-114.18-256-256 114.18-256 256-256z" fill="#2196f3"/>
  <path d="m398.59 227.38-116.24-97.42c-15.24-12.77-37.45-12.77-52.69 0l-116.24 97.42c-14.75 12.36-6.01 36.39 13.23 36.39h10.54v107.33c0 11.33 9.18 20.51 20.51 20.51h58.76v-69.32c0-21.84 17.71-39.55 39.55-39.55s39.55 17.71 39.55 39.55v69.32h58.76c11.33 0 20.51-9.18 20.51-20.51v-107.33h10.54c19.24 0 27.98-24.03 13.23-36.39z" fill="#fff"/>
</svg>
