<svg xmlns="http://www.w3.org/2000/svg" version="1.1"
     width="512" height="512" x="0" y="0" viewBox="0 0 512 512"
     xml:space="preserve" class="">
    <g>
        <g>
            <rect width="512" height="512" fill="#2196f3" rx="256" transform="rotate(90 256 256)"></rect>
            <path
                    fill="#ffffff"
                    d="m398.59 227.38-116.24-97.42c-15.24-12.77-37.45-12.77-52.69 0l-116.24 97.42c-14.75 12.36-6.01 36.39 13.23 36.39h10.54V371.1c0 11.33 9.18 20.51 20.51 20.51h58.76v-69.32c0-21.84 17.71-39.55 39.55-39.55 21.84 0 39.55 17.71 39.55 39.55v69.32h58.76c11.33 0 20.51-9.18 20.51-20.51V263.77h10.54c19.24 0 27.98-24.03 13.23-36.39z">

</path>
</g>
</g></svg>