<svg xmlns="http://www.w3.org/2000/svg" version="1.1" xmlns:xlink="http://www.w3.org/1999/xlink"
     xmlns:svgjs="http://svgjs.com/svgjs" width="512" height="512" x="0" y="0" viewBox="0 0 512 512"
     style="enable-background:new 0 0 512 512" xml:space="preserve" class=""><g><path fill="#b37059" d="M437 240H286c-11.567 0-22.02 4.508-30 11.704-7.98-7.196-18.433-11.704-30-11.704H75c-24.814 0-45 20.186-45 45v152h452V285c0-24.814-20.186-45-45-45z" ></path><path
        fill="#995a4d" d="M482 285c0-24.814-20.186-45-45-45H286c-11.567 0-22.02 4.508-30 11.704V437h226z"
        ></path><path fill="#b37059" d="M256 422H30v68.368L60 512h392l30-24.001V422z"
                                             ></path><path fill="#995a4d"
                                                                                  d="M482 487.999V422H256v90h196z"
                                                                                  ></path><path
        fill="#5c736b"
        d="M376 0H136c-8.401 0-15 6.599-15 15v150c0 8.399 6.599 15 15 15h240c8.401 0 15-6.601 15-15V15c0-8.401-6.599-15-15-15z"
         class=""></path><path fill="#475953"
                                                      d="M391 15v150c0 8.399-6.599 15-15 15H256V0h120c8.401 0 15 6.599 15 15z"
                                                      ></path><path fill="#99eeff"
                                                                                           d="M256 30H151v30.868l35.427 49.482 38.831 10.952L256 115.964l79.715-13.839L361 60.868V30z"

                                                                                           class=""></path><path
        fill="#7adef2" d="M361 60.868V30H256v85.964l79.715-13.839z" ></path><path fill="#ffd966"
                                                                                                         d="M75 60H60V45c0-8.291-6.709-15-15-15s-15 6.709-15 15v15H15C6.709 60 0 66.709 0 75s6.709 15 15 15h15v15c0 8.291 6.709 15 15 15s15-6.709 15-15V90h15c8.291 0 15-6.709 15-15s-6.709-15-15-15z"

                                                                                                         class=""></path><path
        fill="#ffbe40"
        d="M497 60h-15V45c0-8.291-6.709-15-15-15s-15 6.709-15 15v15h-15c-8.291 0-15 6.709-15 15s6.709 15 15 15h15v15c0 8.291 6.709 15 15 15s15-6.709 15-15V90h15c8.291 0 15-6.709 15-15s-6.709-15-15-15z"
         class=""></path><path fill="#f2f9ff"
                                                      d="M226 452H90c-16.569 0-30-13.431-30-30 0-16.569 13.431-30 30-30h136c16.569 0 30 13.431 30 30 0 16.569-13.431 30-30 30z"
                                                      ></path><path fill="#d9e9f9"
                                                                                           d="M422 452H286c-16.569 0-30-13.431-30-30 0-16.569 13.431-30 30-30h136c16.569 0 30 13.431 30 30 0 16.569-13.431 30-30 30z"
                                                                                           ></path><path
        fill="#ff9f40"
        d="m248.134 107.227-22.875 14.075 73.145 20.63c10.433 3.896 51.22 6.747 62.596 8.068V60.868c-43.881 4.122-78.931 25.479-112.866 46.359z"
        ></path><path fill="#ffd966"
                                             d="M256 102.506c-31.545-19.259-64.475-37.831-105-41.638V150h210c-37.989-4.407-69.908-26.049-105-47.494z"
                                              class=""></path><path fill="#ffbe40"
                                                                                           d="M361 150c-37.989-4.407-69.907-26.048-105-47.494V150z"

                                                                                           class=""></path><path
        fill="#cc825d" d="M60 512H15c-8.284 0-15-6.716-15-15V392c0-16.569 13.431-30 30-30 16.569 0 30 13.431 30 30z"
        ></path><path fill="#b37059"
                                             d="M497 512h-45V392c0-16.569 13.431-30 30-30 16.569 0 30 13.431 30 30v105c0 8.284-6.716 15-15 15z"
                                             ></path></g></svg>
