<svg version="1.1" viewBox="0 0 512 333.33" xmlns="http://www.w3.org/2000/svg">
  <path fill="#FFF" d="m509.71 1.7486a7.3319 7.3319 0 0 0-4.9578-1.7457c-4.9578 0-11.347 3.3517-14.769 5.2371l-1.3791 0.69828a46.802 46.802 0 0 1-18.452 4.6435c-6.5638 0.20948-12.22 0.59354-19.587 1.3442-43.642 4.5039-63.107 37.951-81.855 70.299-10.195 17.597-20.739 35.787-35.193 49.874a97.252 97.252 0 0 1-9.5315 8.0825c-14.961 11.155-33.744 19.028-48.425 24.649-14.088 5.3767-29.432 10.212-44.288 14.891-13.581 4.2769-26.43 8.3095-38.231 12.709-5.3244 1.9726-9.8457 3.4914-13.843 4.8181-10.736 3.4914-18.504 6.1623-29.816 13.966-4.4166 3.02-8.8506 6.2845-11.871 8.7284a124.4 124.4 0 0 0-23.637 24.911 148.05 148.05 0 0 1-19.848 23.898c-2.3741 2.3392-6.6336 3.4914-12.97 3.4914-7.4541 0-16.462-1.5362-26.028-3.1597-9.5664-1.6235-20.006-3.4914-28.734-3.4914-7.1049 0-12.517 1.1522-16.584 3.4914 0 0-6.8082 3.9802-9.706 9.1299l2.828 1.2744a58.585 58.585 0 0 1 12.098 8.7284 58.795 58.795 0 0 0 12.551 8.9379 11.12 11.12 0 0 1 3.9103 2.5312c-1.2045 1.7457-2.9502 3.9976-4.7832 6.4067-10.073 13.18-15.938 21.507-12.569 26.046a10.474 10.474 0 0 0 5.2371 1.1871c21.978 0 33.762-5.7084 48.705-12.936 4.3118-2.0948 8.7284-4.2595 13.965-6.459 8.7284-3.7881 18.12-9.8282 28.071-16.217 13.18-8.4666 26.814-17.23 40.011-21.472a108.76 108.76 0 0 1 33.57-4.7134c13.965 0 28.664 1.8679 42.839 3.6834 10.579 1.3616 21.507 2.7582 32.243 3.4914 4.1722 0.2444 8.0302 0.36659 11.801 0.36659a137 137 0 0 0 15.03-0.78556l1.1871-0.41896c7.5414-4.6261 11.068-14.559 14.472-24.16 2.1996-6.1797 4.05-11.731 6.9828-15.257a3.5961 3.5961 0 0 1 0.57608-0.47133 0.69827 0.69827 0 0 1 0.85539 0.13965 0.43642 0.43642 0 0 1 0 0.27932c-1.7457 37.55-16.881 61.378-32.156 82.571l-10.369 10.876s14.28 0 22.415-3.1422c29.677-8.8681 52.091-28.42 68.396-59.598a252.06 252.06 0 0 0 10.753-24.597c0.27931-0.69827 2.8629-1.9901 2.6011 1.6235 0 1.0649-0.13966 2.2519-0.22694 3.4914 0 0.73319-0.10473 1.4838-0.13966 2.2345-0.43642 5.2371-1.7457 16.305-1.7457 16.305l9.1649-4.9054c22.1-13.965 39.138-42.141 52.056-85.975 5.3942-18.26 9.322-36.398 12.796-52.371 4.1547-19.203 7.7334-35.664 11.836-42.054 6.4416-10.02 16.27-16.794 25.784-23.375 1.3093-0.8903 2.6011-1.7457 3.8754-2.6884 11.975-8.3968 23.864-18.085 26.465-36.153v-0.4015c1.9901-13.477 0.36659-16.828-1.3791-18.487z" />
</svg>
