<svg version="1.1" viewBox="0 0 512 333.19" xmlns="http://www.w3.org/2000/svg">
  <path fill="#003545" d="m509.61 1.6652a7.2966 7.2966 0 0 0-4.9575-1.6583c-4.94 0-11.329 3.3515-14.768 5.1495l-1.3616 0.69824a46.887 46.887 0 0 1-18.451 4.6433c-6.5634 0.20948-12.219 0.5935-19.586 1.3616-43.64 4.4862-63.103 37.932-81.851 70.277-10.212 17.596-20.755 35.872-35.209 49.837a94.96 94.96 0 0 1-9.5135 8.0821c-14.96 11.119-33.742 19.062-48.353 24.683-14.069 5.3764-29.431 10.212-44.268 14.89-13.598 4.2767-26.428 8.3265-38.228 12.708-5.324 1.9725-9.8451 3.4912-13.843 4.8178-10.753 3.4912-18.503 6.1619-29.832 13.965-4.4164 3.0199-8.8501 6.2841-11.853 8.728a125.02 125.02 0 0 0-23.653 24.91 147.07 147.07 0 0 1-19.865 23.845c-2.3915 2.3391-6.6332 3.4912-12.987 3.4912-7.4362 0-16.461-1.5361-26.009-3.1595-9.8451-1.7456-20.022-3.4039-28.75-3.4039-7.0871 0-12.516 1.1521-16.566 3.4912 0 0-6.8253 3.9799-9.7055 9.1294l2.8279 1.2743a57.971 57.971 0 0 1 12.079 8.728 60.607 60.607 0 0 0 12.568 8.9374 10.788 10.788 0 0 1 3.8752 2.4613c-1.187 1.7456-2.9326 3.9974-4.7655 6.4063-10.072 13.179-15.955 21.506-12.586 26.044a10.596 10.596 0 0 0 5.2368 1.187c21.96 0 33.76-5.7081 48.685-12.935 4.3291-2.0947 8.728-4.2418 13.965-6.4587 8.728-3.7879 18.119-9.8277 28.087-16.217 13.04-8.501 26.673-17.229 39.904-21.436a108.75 108.75 0 0 1 33.568-4.7131c13.965 0 28.663 1.8678 42.837 3.6832 10.561 1.3616 21.506 2.758 32.241 3.4039 4.172 0.24438 8.0297 0.36657 11.783 0.36657a136.52 136.52 0 0 0 15.03-0.78551l1.2045-0.41894c7.5235-4.6258 11.05-14.558 14.471-24.159 2.1994-6.1794 4.0498-11.73 6.9824-15.256a4.4513 4.4513 0 0 1 0.55859-0.47131 0.69824 0.69824 0 0 1 0.85534 0.13965v0.27929c-1.7456 37.548-16.862 61.392-32.154 82.584l-10.212 10.945s14.296 0 22.431-3.1421c29.675-8.8676 52.071-28.418 68.375-59.594a254.33 254.33 0 0 0 10.77-24.595c0.27929-0.69824 2.8453-1.99 2.6009 1.6234-0.0873 1.0648-0.1571 2.2518-0.24438 3.4912 0 0.73314 0 1.4838-0.13965 2.2344-0.41894 5.2368-1.6583 16.304-1.6583 16.304l9.1644-4.9051c22.099-13.965 39.136-42.139 52.054-85.97 5.3764-18.259 9.3214-36.396 12.795-52.368 4.1545-19.201 7.733-35.662 11.835-42.051 6.4412-10.02 16.269-16.793 25.782-23.373 1.2917-0.89025 2.6009-1.7456 3.8752-2.6882 11.957-8.3963 23.845-18.084 26.463-36.151v-0.40148c1.9027-13.476 0.29675-16.915-1.5361-18.486z" />
</svg>
