<svg xmlns="http://www.w3.org/2000/svg" version="1.1" xmlns:xlink="http://www.w3.org/1999/xlink" xmlns:svgjs="http://svgjs.com/svgjs" width="512" height="512" x="0" y="0" viewBox="0 0 2666.66 2666.66" style="enable-background:new 0 0 512 512" xml:space="preserve" class=""><g><circle cx="1333.33" cy="1333.33" r="1333.33" fill="#743bbc" data-original="#743bbc" class=""></circle><g fill="#fefefe"><path d="M841.48 1517.63a212.362 212.362 0 0 1-69.35-48.11c-154.02 2.56-259.84-155.04-198.96-296.32-124.91-93.21-108.71-283.54 26.16-356.7 42.94-155.39 235.69-206.18 350.8-96.84 190.33-90.83 382.09 124.65 272.34 302.59 195.22 105.2 115.44 406.71-109 398.76-27.8 53.15-76.52 91.51-133.29 106.71v-193.26c31.21-21.49 63.01-44.51 72.56-51.06 21.51-14.75-.87-47.45-22.4-32.7l-50.16 34.37v-95.75c42.65-27.21 91.16-59.85 103.52-67.78 21.96-14.1.54-47.45-21.41-33.35l-82.11 52.7v-42.82c0-91.64-138.69-91.08-138.69 0v100.9l-82.09-52.68c-21.94-14.09-43.37 19.24-21.41 33.35 12.34 7.93 60.85 40.56 103.5 67.76v270.24z" fill="#fefefe" data-original="#fefefe" class=""></path><path d="M910.83 2022.18c-20.05 0-36.33-16.28-36.33-36.32v-887.8c0-47.83 72.65-47.83 72.65 0v887.8c0 20.04-16.28 36.32-36.32 36.32zM2059.37 1785.78h-748.8c-39.72 0-30.09-52.24-30.09-94.61 0-16.59 13.5-30.11 30.09-30.11h748.8c39.73 0 30.08 52.3 30.09 94.62.01 16.59-13.51 30.09-30.09 30.09z" fill="#fefefe" data-original="#fefefe" class=""></path><path d="M1416.93 2005.67h-79.18c-10.94 0-19.81-8.89-19.81-19.81v-219.9c0-10.94 8.88-19.81 19.81-19.81h79.18c10.94 0 19.81 8.89 19.81 19.81v219.89c0 10.94-8.87 19.83-19.81 19.83zM2012.92 2005.67h-79.17c-10.94 0-19.81-8.89-19.81-19.81v-219.9c0-10.94 8.89-19.81 19.81-19.81h79.17c10.94 0 19.81 8.89 19.81 19.81v219.89c.01 10.94-8.88 19.83-19.81 19.83zM1416.93 1700.71h-79.18c-10.94 0-19.81-8.89-19.81-19.81v-304.96c0-10.94 8.88-19.81 19.81-19.81h79.18c10.94 0 19.81 8.89 19.81 19.81v304.95c0 10.93-8.87 19.82-19.81 19.82zM2012.92 1700.71h-79.17c-10.94 0-19.81-8.89-19.81-19.81v-304.96c0-10.94 8.89-19.81 19.81-19.81h79.17c10.94 0 19.81 8.89 19.81 19.81v304.95c.01 10.93-8.88 19.82-19.81 19.82z" fill="#fefefe" data-original="#fefefe" class=""></path><path d="M1933.74 1631.81h-93.29l.07-206.78h93.23c10.94 0 19.81 8.89 19.81 19.81v167.14c0 10.95-8.89 19.83-19.83 19.83zm-132.09 0h-58.35l.07-206.78h58.21zm-97.15 0h-58.33l.07-206.78h58.19zm-97.13 0h-58.35l.07-206.78h58.21zm-97.16 0h-93.29c-10.94 0-19.81-8.89-19.81-19.81v-167.15c0-10.93 8.89-19.81 19.81-19.81h93.22l.06 206.78zM2158.96 2025.26H718.9c-47.83 0-47.83-72.65 0-72.65h1440.07c47.83 0 47.83 72.65-.01 72.65z" fill="#fefefe" data-original="#fefefe" class=""></path></g></g></svg>