<svg class="" enable-background="new 0 0 512 512" version="1.1" viewBox="0 0 512 512" xml:space="preserve" xmlns="http://www.w3.org/2000/svg">
  
<g transform="matrix(1.1 0 0 1.1 -73 6.8e-7)"><path class="" d="m118 161-0.3-48a15 15 0 0 1 7.6-13l42-24 24-42a15 15 0 0 1 13-7.6l48 0.3 42-24a15 15 0 0 1 7.6-2.1l20 210-20 210c-2.6 0-5.2-0.68-7.6-2.1l-42-24-48 0.3a15 15 0 0 1-13-7.6l-24-42-42-24a15 15 0 0 1-7.6-13l0.3-48-24-42a15 15 0 0 1 0-15z" fill="#ffd944" data-original="#ffd944"/><path class="" d="m486 161 0.3-48a15 15 0 0 0-7.6-13l-42-24-24-42a15 15 0 0 0-13-7.6l-48 0.3-42-24a15 15 0 0 0-7.6-2.1v420c2.6 0 5.2-0.68 7.6-2.1l42-24 48 0.3a15 15 0 0 0 13-7.6l24-42 42-24a15 15 0 0 0 7.6-13l-0.3-48 24-42a15 15 0 0 0 0-15z" fill="#ffb555" data-original="#ffb555"/><path d="m302 335c-69 0-125-56-125-125s56-125 125-125l85 125z" fill="#fff58d" data-original="#fff58d"/><path class="" d="m302 85v250c69 0 125-56 125-125s-56-125-125-125z" fill="#ffd944" data-original="#ffd944"/></g><g transform="matrix(.86 0 0 .86 4.1 66)"><path d="m15 367c0-72 58-130 130-130l10 135-10 125c-72 0-130-58-130-130z" fill="#f0f0f0" data-original="#f0f0f0"/><path d="m275 367c0-72-58-130-130-130v260c72 0 130-58 130-130z" fill="#e6e6e6" data-original="#e6e6e6"/><path d="m145 302c-8.3 0-15 6.7-15 15v35h-15c-8.3 0-15 6.7-15 15s6.7 15 15 15h30l5-35z" fill="#607881" data-original="#607881"/><path d="m160 367v-50c0-8.3-6.7-15-15-15v80c8.3 0 15-6.7 15-15z" fill="#495959" data-original="#495959"/><path d="m130 497v-30c0-8.3 6.7-15 15-15l10 45z" fill="#607881" data-original="#607881"/><path d="m160 497v-30c0-8.3-6.7-15-15-15v45z" fill="#495959" data-original="#495959"/><path d="m45 352h-30v30h30c8.3 0 15-6.7 15-15s-6.7-15-15-15z" fill="#607881" data-original="#607881"/><path d="m245 352c-8.3 0-15 6.7-15 15s6.7 15 15 15h30v-30z" fill="#495959" data-original="#495959"/><path d="m145 282c-8.3 0-15-6.7-15-15v-30h15l10 24z" fill="#607881" data-original="#607881"/><path d="m145 282c8.3 0 15-6.7 15-15v-30h-15z" fill="#495959" data-original="#495959"/><path d="m30 367c0 63 52 115 115 115l10 15-10 15c-80 0-145-65-145-145s65-145 145-145l10 15-10 15c-63 0-115 52-115 115z" fill="#ff8d8d" data-original="#ff8d8d"/><path d="m260 367c0 63-52 115-115 115v30c80 0 145-65 145-145s-65-145-145-145v30c63 0 115 52 115 115z" fill="#ff5b5b" data-original="#ff5b5b"/></g></svg>
