<svg class="" enable-background="new 0 0 512 512" version="1.1" viewBox="0 0 512 512" xml:space="preserve" xmlns="http://www.w3.org/2000/svg">
  <path class="" d="m474.668 0h-160c-20.59 0-37.336 16.746-37.336 37.332v224c0 20.59 16.746 37.336 37.336 37.336h160c20.586 0 37.332-16.746 37.332-37.336v-224c0-20.586-16.746-37.332-37.332-37.332zm0 341.332h-160c-20.59 0-37.336 16.746-37.336 37.336v96c0 20.586 16.746 37.332 37.336 37.332h160c20.586 0 37.332-16.746 37.332-37.332v-96c0-20.59-16.746-37.336-37.332-37.336zm-277.336-128h-160c-20.586 0-37.332 16.746-37.332 37.336v224c0 20.586 16.746 37.332 37.332 37.332h160c20.59 0 37.336-16.746 37.336-37.332v-224c0-20.59-16.746-37.336-37.336-37.336zm0-213.332h-160c-20.586 0-37.332 16.746-37.332 37.332v96c0 20.59 16.746 37.336 37.332 37.336h160c20.59 0 37.336-16.746 37.336-37.336v-96c0-20.586-16.746-37.332-37.336-37.332z"/>
</svg>
