<svg xmlns="http://www.w3.org/2000/svg" version="1.1" xmlns:xlink="http://www.w3.org/1999/xlink" width="512" height="512" x="0" y="0" viewBox="0 0 512 512" style="enable-background:new 0 0 512 512" xml:space="preserve" class="">
  <g fill-rule="evenodd">
      <path fill="#00abf8" d="M256 0C114.841 0 0 114.841 0 256s114.84 256 256 256 256-114.838 256-256S397.16 0 256 0z" opacity="1" />
      <path fill="#0099e6" d="M338.013 249.06 230.782 134.213l.836.964.789 1 .741 1.041.691 1.078.64 1.111.587 1.145.533 1.176.476 1.205.418 1.233.359 1.259.3 1.283.235 1.307.169 1.327.1 1.347.034 1.364v65.907l-.035 1.365-.1 1.346-.172 1.329-.235 1.306-.3 1.284-.358 1.259-.418 1.233-.476 1.205-.533 1.176-.587 1.144-.64 1.112-.691 1.078-.741 1.041-.789 1-.836.964-.879.922-.923.88-.964.835-1 .789-1.042.741-1.077.691-1.112.64-1.144.587-1.176.533-1.2.476-1.234.418-1.258.358-1.284.3-1.306.234-1.328.169-1.346.1-1.365.034h-78.583l-1.364-.035-1.347-.1-1.327-.169-1.307-.234-1.283-.3-1.259-.359-1.233-.418-1.206-.476-1.175-.533-1.145-.587-1.112-.64-1.078-.692-1.04-.741-1-.789-.964-.836 122.98 112.736V364.5l-.035 1.364-.1 1.347-.169 1.327-.235 1.306-.3 1.284-.358 1.259-.418 1.233-.476 1.206-.541 1.174-.587 1.145-.64 1.112-.691 1.077-.741 1.042-.789 1-.836.964-.879.923-.923.879-.964.835-1 .789-1.042.742-1.077.691-1.112.64-1.144.587-1.176.532-1.2.477-1.234.418-1.258.358-1.284.3-1.306.234-1.328.169-1.346.1-1.365.034h-78.591l-1.364-.034-1.347-.1-1.327-.17-1.307-.233-1.283-.3-1.259-.358-1.233-.418-1.206-.477-1.175-.532-1.145-.587-1.112-.64-1.078-.692-1.04-.741-1-.789 154.886 126.6q3.924-.221 7.813-.566a254.085 254.085 0 0 0 92.169-26.111q4.471-2.247 8.842-4.661 2.427-1.341 4.823-2.732 2.072-1.2 4.118-2.449l.053-.032.038-.023.091-.055.033-.02.057-.035.091-.056.091-.055.08-.049.011-.007.091-.055q10.007-6.105 19.4-13.081 2.88-2.139 5.7-4.351l-.009-.009q4.162-3.277 8.187-6.721a257.135 257.135 0 0 0 41.583-45.2l.164-.229.164-.229.165-.229.141-.2.022-.032.028-.038q3.915-5.485 7.547-11.182a254.547 254.547 0 0 0 34.4-84.11q1.823-8.607 3.052-17.42L386.87 144.281l1.9 2.421 1.788 2.512 1.668 2.6 1.545 2.683 1.416 2.761 1.285 2.837 1.153 2.905 1.009 2.976.864 3.038.717 3.1.565 3.152.408 3.2.247 3.25.084 3.292-.084 3.293-.248 3.249-.408 3.2-.564 3.152L399.5 201l-.865 3.039-1.009 2.975-1.149 2.908-1.284 2.837-1.416 2.762-1.545 2.683-1.669 2.6-1.787 2.512-1.9 2.421-2.016 2.326-2.122 2.226-2.226 2.122-2.325 2.015-2.421 1.9-2.513 1.788-2.6 1.668-2.682 1.544-2.762 1.417-2.837 1.284-2.908 1.149-2.975 1.008-3.037.865-3.1.716-3.151.564-3.2.408-3.248.248z" opacity="1"  class="" />
      <path fill="#ffffff" d="M337.457 249.075a64.064 64.064 0 1 0-64.066-64.064 64.136 64.136 0 0 0 64.066 64.064zM211.136 272.05h-78.583A26.588 26.588 0 0 0 106 298.607V364.5a26.586 26.586 0 0 0 26.553 26.556h78.583a26.583 26.583 0 0 0 26.553-26.556v-65.895a26.588 26.588 0 0 0-26.553-26.555zm0-146.545h-78.583A26.586 26.586 0 0 0 106 152.059v65.9a26.587 26.587 0 0 0 26.553 26.553h78.583a26.582 26.582 0 0 0 26.553-26.55v-65.906a26.582 26.582 0 0 0-26.553-26.551zM379.45 272.05h-78.586a26.588 26.588 0 0 0-26.552 26.557v65.89a26.584 26.584 0 0 0 26.55 26.556h78.588A26.581 26.581 0 0 0 406 364.5v-65.895a26.582 26.582 0 0 0-26.552-26.551z" opacity="1"  class="" />
    </g>
</svg>