<svg xmlns="http://www.w3.org/2000/svg" version="1.1" xmlns:xlink="http://www.w3.org/1999/xlink" xmlns:svgjs="http://svgjs.com/svgjs" width="512" height="512" x="0" y="0" viewBox="0 0 512 512" style="enable-background:new 0 0 512 512" xml:space="preserve" class=""><g><path fill="#bbec6c" d="M505.515 190.836c-3.141 99.337-84.67 178.899-184.769 178.899-6.035 0-12.009-.288-17.9-.865-93.703-8.991-166.962-87.935-166.962-183.997 0-73.3 42.66-136.63 104.497-166.539l228.551 148.701z" data-original="#bbec6c" class=""></path><path fill="#a2e62e" d="M505.515 190.836c-3.141 99.337-84.67 178.899-184.769 178.899-6.035 0-12.009-.288-17.9-.865 91.736-8.837 163.882-84.702 166.838-178.034.062-1.988.103-3.965.103-5.963 0-6.015-.288-11.968-.855-17.838z" data-original="#a2e62e"></path><path fill="#fe5694" d="m488.457 165.785-18.773 25.051H320.745L374.782 71.25l40.417-45.326c54.144 32.246 73.258 139.861 73.258 139.861z" data-original="#fe5694"></path><path fill="#fd3581" d="m415.199 25.923-10.434 11.702v6.516c39.778 33.908 65.017 84.372 65.017 140.731 0 1.998-.041 3.976-.103 5.963h35.835c.062-1.988.103-3.965.103-5.963 0-67.594-36.274-126.702-90.418-158.949z" data-original="#fd3581"></path><path fill="#ffe177" d="m404.765 44.141-84.02 146.695-17.92-116.494L320.745 0c34.502 0 79.362 25.923 84.02 44.141z" data-original="#ffe177"></path><path fill="#ffd15b" d="M379.364 25.923a185.28 185.28 0 0 1 25.401 18.218l10.434-18.218C387.556 9.455 355.247 0 320.745 0l-.596 2.474.596 1.02a183.638 183.638 0 0 1 58.619 22.429z" data-original="#ffd15b"></path><path fill="#26a6fe" d="M320.745 0v190.836L240.379 18.333C264.685 6.581 291.947 0 320.745 0z" data-original="#26a6fe" class=""></path><path fill="#0593fc" d="M320.745 3.495V0c-6.047 0-12.021.307-17.919.875a184.272 184.272 0 0 1 17.919 2.62z" data-original="#0593fc"></path><path fill="#7ca1b1" d="M277.317 277.851H62.708v-32.885c0-8.24 6.68-14.919 14.919-14.919h184.771c8.24 0 14.919 6.68 14.919 14.919z" data-original="#7ca1b1"></path><path fill="#678d98" d="M262.398 230.047h-35.835c8.24 0 14.919 6.68 14.919 14.919v32.885h35.835v-32.885c0-8.239-6.679-14.919-14.919-14.919z" data-original="#678d98"></path><path fill="#a8d3d8" d="M317.169 512H22.856c-9.098 0-16.473-7.375-16.473-16.473v-89.279c0-9.098 7.375-16.473 16.473-16.473l146.778-13.336 147.535 13.336c9.098 0 16.473 7.375 16.473 16.473v89.279c0 9.098-7.375 16.473-16.473 16.473z" data-original="#a8d3d8"></path><path fill="#8ebac5" d="m317.169 389.776-35.835-3.239v3.239c9.098 0 16.473 7.375 16.473 16.473v89.279c0 9.098-7.375 16.473-16.473 16.473h35.835c9.098 0 16.473-7.375 16.473-16.473v-89.279c0-9.098-7.375-16.473-16.473-16.473z" data-original="#8ebac5"></path><path fill="#8ebac5" d="M317.169 389.776H22.856c-9.098 0-16.473-7.375-16.473-16.473v-89.279c0-9.098 7.375-16.473 16.473-16.473h294.313c9.098 0 16.473 7.375 16.473 16.473v89.279c0 9.098-7.375 16.473-16.473 16.473z" data-original="#8ebac5"></path><path fill="#7ca1b1" d="M317.169 267.552h-35.835c9.098 0 16.473 7.375 16.473 16.473v89.279c0 9.098-7.375 16.473-16.473 16.473h35.835c9.098 0 16.473-7.375 16.473-16.473v-89.279c0-9.098-7.375-16.473-16.473-16.473z" data-original="#7ca1b1"></path><path fill="#a2e62e" d="M290.05 458.613h-27.291a7.724 7.724 0 1 1 0-15.448h27.291a7.724 7.724 0 1 1 0 15.448zM290.05 336.389h-27.291a7.724 7.724 0 1 1 0-15.448h27.291a7.724 7.724 0 1 1 0 15.448z" data-original="#a2e62e"></path><path fill="#eaf6ff" d="M169.232 466.229H65.315c-8.472 0-15.34-6.868-15.34-15.34s6.868-15.34 15.34-15.34h103.917c8.472 0 15.34 6.868 15.34 15.34 0 8.471-6.868 15.34-15.34 15.34z" data-original="#eaf6ff"></path><path fill="#bbec6c" d="M247.418 466.229c-8.472 0-15.34-6.868-15.34-15.34s6.868-15.34 15.34-15.34 15.34 6.868 15.34 15.34c.001 8.471-6.867 15.34-15.34 15.34z" data-original="#bbec6c" class=""></path><path fill="#eaf6ff" d="M169.232 344.005H65.315c-8.472 0-15.34-6.868-15.34-15.34s6.868-15.34 15.34-15.34h103.917c8.472 0 15.34 6.868 15.34 15.34 0 8.471-6.868 15.34-15.34 15.34z" data-original="#eaf6ff"></path><path fill="#bbec6c" d="M247.418 344.005c-8.472 0-15.34-6.868-15.34-15.34s6.868-15.34 15.34-15.34 15.34 6.868 15.34 15.34c.001 8.471-6.867 15.34-15.34 15.34z" data-original="#bbec6c" class=""></path></g></svg>
