<svg xmlns="http://www.w3.org/2000/svg" version="1.1" xmlns:xlink="http://www.w3.org/1999/xlink" xmlns:svgjs="http://svgjs.com/svgjs" width="512" height="512" x="0" y="0" viewBox="0 0 512 512" style="enable-background:new 0 0 512 512" xml:space="preserve" class=""><g><path fill="#6354b1" d="M422.887 317.302c0 11.68-16.201 23.229-44.45 31.69-29.038 8.697-67.665 13.486-108.766 13.486-34.014 0-66.316-3.288-92.908-9.348 6.521 12.701 10.203 27.09 10.203 42.322 0 15.069-3.607 29.311-9.998 41.912 25.806 5.821 57.907 9.274 92.703 9.274 85.18 0 154.232-20.68 154.232-46.191v-83.143h-1.016z" data-original="#6354b1" class=""></path><path fill="#54469c" d="M422.887 317.302c0 11.457-15.599 22.788-42.86 31.202v84.206c27.142-8.326 43.876-19.709 43.876-32.264v-83.143h-1.016z" data-original="#54469c" class=""></path><path fill="#8379c1" d="M422.887 234.158c0 11.679-16.201 23.23-44.45 31.689-29.038 8.697-67.666 13.487-108.766 13.487-41.101 0-79.728-4.79-108.767-13.487-28.248-8.46-44.449-20.01-44.449-31.689h-1.015v70.819c27.18 6.443 49.779 24.849 61.91 49.329 25.74 5.769 57.698 9.186 92.321 9.186 85.18 0 154.232-20.68 154.232-46.191v-83.144h-1.016z" data-original="#8379c1"></path><path fill="#6e61b6" d="M422.887 234.158c0 11.457-15.599 22.788-42.86 31.201v84.206c27.142-8.326 43.876-19.709 43.876-32.264v-83.144h-1.016z" data-original="#6e61b6"></path><path fill="#6354b1" d="M422.887 151.015c0 11.679-16.201 23.23-44.45 31.69-29.038 8.697-67.666 13.487-108.766 13.487-41.101 0-79.728-4.79-108.767-13.487-28.248-8.46-44.449-20.01-44.449-31.69h-1.015v83.143c0 25.511 69.052 46.191 154.232 46.191s154.232-20.68 154.232-46.191v-83.143z" data-original="#6354b1" class=""></path><path fill="#54469c" d="M380.027 182.216v84.206c27.142-8.326 43.876-19.709 43.876-32.264v-83.143h-1.015c-.001 11.457-15.6 22.788-42.861 31.201z" data-original="#54469c" class=""></path><ellipse cx="269.671" cy="151.015" fill="#8379c1" rx="154.232" ry="46.191" data-original="#8379c1"></ellipse><path fill="#6e61b6" d="M269.671 104.824c-7.098 0-14.08.147-20.923.425 75.282 3.058 133.309 22.381 133.309 45.766s-58.027 42.708-133.309 45.766c6.843.278 13.825.425 20.923.425 85.18 0 154.232-20.68 154.232-46.191s-69.052-46.191-154.232-46.191z" data-original="#6e61b6"></path><path fill="#ffffff" d="M239.246 250.31h-5.532c-7.638 0-13.829-6.192-13.829-13.829 0-7.638 6.192-13.829 13.829-13.829h5.532c7.638 0 13.829 6.192 13.829 13.829.001 7.637-6.191 13.829-13.829 13.829zM305.628 250.31h-5.532c-7.638 0-13.829-6.192-13.829-13.829 0-7.638 6.192-13.829 13.829-13.829h5.532c7.638 0 13.829 6.192 13.829 13.829 0 7.637-6.191 13.829-13.829 13.829zM239.246 418.414h-5.532c-7.638 0-13.829-6.192-13.829-13.829 0-7.638 6.192-13.829 13.829-13.829h5.532c7.638 0 13.829 6.192 13.829 13.829.001 7.638-6.191 13.829-13.829 13.829zM305.628 418.414h-5.532c-7.638 0-13.829-6.192-13.829-13.829 0-7.638 6.192-13.829 13.829-13.829h5.532c7.638 0 13.829 6.192 13.829 13.829 0 7.638-6.191 13.829-13.829 13.829z" data-original="#ffffff"></path><path fill="#00f2a6" d="M234.821 324.745h-5.532c-4.142 0-7.5-3.357-7.5-7.5s3.358-7.5 7.5-7.5h5.532c4.142 0 7.5 3.357 7.5 7.5s-3.358 7.5-7.5 7.5zM272.437 324.745h-5.532c-4.143 0-7.5-3.357-7.5-7.5s3.357-7.5 7.5-7.5h5.532c4.143 0 7.5 3.357 7.5 7.5s-3.357 7.5-7.5 7.5zM310.054 324.745h-5.532c-4.143 0-7.5-3.357-7.5-7.5s3.357-7.5 7.5-7.5h5.532c4.143 0 7.5 3.357 7.5 7.5s-3.358 7.5-7.5 7.5z" data-original="#00f2a6"></path><circle cx="93.991" cy="395.451" r="93.991" fill="#fd8087" data-original="#fd8087"></circle><path fill="#fd8087" d="M94.991 395.037v-93.564c-.334-.003-.666-.013-1-.013C42.081 301.46 0 343.542 0 395.451s42.081 93.991 93.991 93.991c26.314 0 50.098-10.818 67.16-28.245z" data-original="#fd8087"></path><path fill="#26a6fe" d="M185.977 394.451H96.583l-2.592 1 66.461 66.461c17.009-17.009 27.529-40.507 27.529-66.461z" data-original="#26a6fe"></path><path fill="#fe646f" d="M136.302 436.349c-12.24 25.28-35.454 44.257-63.469 50.701a94.308 94.308 0 0 0 21.158 2.392c26.314 0 50.098-10.818 67.16-28.245z" data-original="#fe646f"></path><path fill="#0593fc" d="M145.665 395.451c0 15.04-3.538 29.251-9.819 41.856l24.605 24.606c17.009-17.009 27.529-40.507 27.529-66.461h-42.315z" data-original="#0593fc"></path><path fill="#05e39c" d="M93.991 301.461v93.991h93.991c-.001-51.91-42.082-93.991-93.991-93.991z" data-original="#05e39c" class=""></path><path fill="#0ed290" d="M93.991 301.46v10.047c30.653 15.483 51.675 47.256 51.675 83.943h42.316c-.001-51.908-42.082-93.99-93.991-93.99z" data-original="#0ed290" class=""></path><path fill="#ffe177" d="M65.657 260.425H29.34a5.075 5.075 0 0 1-5.075-5.075v-36.316a5.075 5.075 0 0 1 5.075-5.075h36.316a5.075 5.075 0 0 1 5.075 5.075v36.316a5.073 5.073 0 0 1-5.074 5.075z" data-original="#ffe177"></path><path fill="#ffd15b" d="M65.657 213.958H44.944a5.075 5.075 0 0 1 5.075 5.075v36.316a5.075 5.075 0 0 1-5.075 5.075h20.712a5.075 5.075 0 0 0 5.075-5.075v-36.316a5.074 5.074 0 0 0-5.074-5.075z" data-original="#ffd15b"></path><path fill="#ffe177" d="M65.657 180.768H29.34a5.075 5.075 0 0 1-5.075-5.075v-36.316a5.075 5.075 0 0 1 5.075-5.075h36.316a5.075 5.075 0 0 1 5.075 5.075v36.316a5.074 5.074 0 0 1-5.074 5.075z" data-original="#ffe177"></path><path fill="#ffd15b" d="M65.657 134.3H44.944a5.075 5.075 0 0 1 5.075 5.075v36.316a5.075 5.075 0 0 1-5.075 5.075h20.712a5.075 5.075 0 0 0 5.075-5.075v-36.316a5.074 5.074 0 0 0-5.074-5.075z" data-original="#ffd15b"></path><path fill="#00f2a6" d="M450.734 50.771c0-2.602.375-5.116 1.06-7.5h-75.39c-9.732 0-17.65 7.918-17.65 17.65v90.094c0 4.143 3.357 7.5 7.5 7.5s7.5-3.357 7.5-7.5V60.921a2.653 2.653 0 0 1 2.65-2.65h75.39a27.123 27.123 0 0 1-1.06-7.5z" data-original="#00f2a6"></path><circle cx="477.947" cy="50.77" r="28.212" fill="#05e39c" data-original="#05e39c" class=""></circle><path fill="#0ed290" d="M477.947 22.558c-3.756 0-7.338.74-10.615 2.073 10.319 4.195 17.597 14.314 17.597 26.14s-7.278 21.945-17.597 26.14a28.125 28.125 0 0 0 10.615 2.073c15.581 0 28.212-12.631 28.212-28.212s-12.631-28.214-28.212-28.214z" data-original="#0ed290" class=""></path><path fill="#05e39c" d="M504.5 117.461h-53.105c-4.143 0-7.5-3.357-7.5-7.5s3.357-7.5 7.5-7.5H504.5c4.143 0 7.5 3.357 7.5 7.5s-3.357 7.5-7.5 7.5zM504.5 148.438h-53.105c-4.143 0-7.5-3.357-7.5-7.5s3.357-7.5 7.5-7.5H504.5c4.143 0 7.5 3.357 7.5 7.5s-3.357 7.5-7.5 7.5zM504.5 179.417h-53.105c-4.143 0-7.5-3.357-7.5-7.5s3.357-7.5 7.5-7.5H504.5c4.143 0 7.5 3.357 7.5 7.5s-3.357 7.5-7.5 7.5z" data-original="#05e39c" class=""></path></g></svg>
