<svg xmlns="http://www.w3.org/2000/svg" version="1.1" xmlns:xlink="http://www.w3.org/1999/xlink" xmlns:svgjs="http://svgjs.com/svgjs" width="512" height="512" x="0" y="0" viewBox="0 0 58 58" style="enable-background:new 0 0 512 512" xml:space="preserve" class=""><g><g fill="none" fill-rule="nonzero"><path fill="#05618d" d="M40 4v40c0 2.21-8.95 4-20 4S0 46.21 0 44V4z" data-original="#955ba5" class=""></path><path fill="#039be5" d="M0 30.125c0 2.209 8.954 4 20 4s20-1.791 20-4V17c0 2.209-8.954 4-20 4S0 19.209 0 17z" data-original="#894b9d" class=""></path><path fill="#039be5" d="M27.97 17.231a1 1 0 0 1-.084-2c2.65-.193 5.28-.594 7.867-1.2a1 1 0 0 1 .494 1.938 52.741 52.741 0 0 1-8.191 1.259 1.214 1.214 0 0 1-.086.003z" data-original="#894b9d" class=""></path><circle cx="4" cy="10" r="1" fill="#f0c419" data-original="#f0c419" class=""></circle><path fill="#039be5" d="M4 17a1 1 0 0 1-1-1v-2a1 1 0 0 1 2 0v2a1 1 0 0 1-1 1z" data-original="#894b9d" class=""></path><circle cx="4" cy="23" r="1" fill="#f0c419" data-original="#f0c419" class=""></circle><path fill="#035d89" d="M4 30a1 1 0 0 1-1-1v-2a1 1 0 0 1 2 0v2a1 1 0 0 1-1 1z" data-original="#5d4c72" class=""></path><circle cx="4" cy="36" r="1" fill="#f0c419" data-original="#f0c419" class=""></circle><path fill="#039be5" d="M4 43a1 1 0 0 1-1-1v-2a1 1 0 0 1 2 0v2a1 1 0 0 1-1 1z" data-original="#894b9d" class=""></path><rect width="34" height="34" x="24" y="24" fill="#35495e" rx="2" data-original="#35495e" class=""></rect><circle cx="41" cy="45" r="6" fill="#95a5a5" data-original="#95a5a5" class=""></circle><circle cx="41" cy="45" r="2" fill="#7f8c8d" data-original="#7f8c8d" class=""></circle><path fill="#95a5a5" d="M52 24v9a2.006 2.006 0 0 1-2 2h-5V24z" data-original="#95a5a5" class=""></path><path fill="#bdc3c7" d="M45 24v11H32a2.006 2.006 0 0 1-2-2v-9z" data-original="#bdc3c7" class=""></path><g fill="#2c3e50"><path d="M34 32a1 1 0 0 1-1-1v-3a1 1 0 0 1 2 0v3a1 1 0 0 1-1 1zM29 55h-1a1 1 0 0 1 0-2h1a1 1 0 0 1 0 2zM54 55h-1a1 1 0 0 1 0-2h1a1 1 0 0 1 0 2z" fill="#2c3e50" data-original="#2c3e50"></path></g><ellipse cx="20" cy="4" fill="#039be5" rx="20" ry="4" data-original="#b49aca" class=""></ellipse></g></g></svg>
