<svg xmlns="http://www.w3.org/2000/svg" version="1.1" xmlns:xlink="http://www.w3.org/1999/xlink" xmlns:svgjs="http://svgjs.com/svgjs" width="512" height="512" x="0" y="0" viewBox="0 0 682.667 682.667" style="enable-background:new 0 0 512 512" xml:space="preserve" class=""><g transform="matrix(0.8600000000000004,0,0,0.8600000000000004,47.78654499053937,47.78682697296125)"><defs stroke-width="45" style="stroke-width: 45;"><clipPath id="a" clipPathUnits="userSpaceOnUse" stroke-width="45" style="stroke-width: 45;"><path d="M0 512h512V0H0Z" fill="#00abf8" stroke-width="45" style="stroke-width: 45;" class=""></path></clipPath></defs><g clip-path="url(#a)" transform="matrix(1.33333 0 0 -1.33333 0 682.667)" stroke-width="45" style="stroke-width: 45;"><path d="M0 0c0-22.091-17.909-40-40-40h-120c-22.091 0-40 17.909-40 40v160c0 22.091 17.909 40 40 40h120c22.091 0 40-17.909 40-40z" style="stroke-width: 45; stroke-linecap: butt; stroke-linejoin: miter; stroke-miterlimit: 10; stroke-dasharray: none; stroke-opacity: 1;" transform="translate(220 292)" fill="none" stroke="#00abf8" stroke-width="45" stroke-linecap="butt" stroke-linejoin="miter" stroke-miterlimit="10" stroke-dasharray="none" stroke-opacity="" class=""></path><path d="M0 0c0-22.091-17.909-40-40-40h-120c-22.091 0-40 17.909-40 40v160c0 22.091 17.909 40 40 40h120c22.091 0 40-17.909 40-40z" style="stroke-width: 45; stroke-linecap: butt; stroke-linejoin: miter; stroke-miterlimit: 10; stroke-dasharray: none; stroke-opacity: 1;" transform="translate(492 60)" fill="none" stroke="#00abf8" stroke-width="45" stroke-linecap="butt" stroke-linejoin="miter" stroke-miterlimit="10" stroke-dasharray="none" stroke-opacity="" class=""></path><path d="M0 0c0-22.091-17.909-40-40-40h-120c-22.091 0-40 17.909-40 40v80c0 22.091 17.909 40 40 40h120c22.091 0 40-17.909 40-40z" style="stroke-width: 45; stroke-linecap: butt; stroke-linejoin: miter; stroke-miterlimit: 10; stroke-dasharray: none; stroke-opacity: 1;" transform="translate(220 60)" fill="none" stroke="#00abf8" stroke-width="45" stroke-linecap="butt" stroke-linejoin="miter" stroke-miterlimit="10" stroke-dasharray="none" stroke-opacity="" class=""></path><path d="M0 0c0-22.091-17.909-40-40-40h-120c-22.091 0-40 17.909-40 40v80c0 22.091 17.909 40 40 40h120c22.091 0 40-17.909 40-40z" style="stroke-width: 45; stroke-linecap: butt; stroke-linejoin: miter; stroke-miterlimit: 10; stroke-dasharray: none; stroke-opacity: 1;" transform="translate(492 372)" fill="none" stroke="#00abf8" stroke-width="45" stroke-linecap="butt" stroke-linejoin="miter" stroke-miterlimit="10" stroke-dasharray="none" stroke-opacity="" class=""></path></g></g></svg>
