<svg version="1.1" viewBox="0 0 24 24" xmlns="http://www.w3.org/2000/svg">
  <desc>bath,shower,wash</desc>
  <path d="m6.7207 2.0566c-0.58184-0.11311-1.1805-0.05821-1.7129 0.14453-1.0647 0.40548-1.9333 1.4335-2.0059 2.7441a1.0001 1.0001 0 0 0-0.0019531 0.054688v6h-1a1 1 0 0 0-1 1 1 1 0 0 0 1 1h1v4c0 1.645 1.355 3 3 3v1a1 1 0 0 0 1 1 1 1 0 0 0 1-1v-1h8v1a1 1 0 0 0 1 1 1 1 0 0 0 1-1v-1c1.645 0 3-1.355 3-3v-4h1a1 1 0 0 0 1-1 1 1 0 0 0-1-1h-17v-5.9473c0.030054-0.52029 0.32303-0.83172 0.71875-0.98242 0.39661-0.15104 0.82426-0.11495 1.1934 0.25586a1.0001 1.0001 0 0 0 0.00195 0.00195l0.67188 0.67188-0.29297 0.29297a1 1 0 0 0 0 1.4141 1 1 0 0 0 1.4141 0l2-2a1 1 0 0 0 0-1.4141 1 1 0 0 0-1.4141 0l-0.29297 0.29297-0.67188-0.67188c-0.46265-0.46397-1.0264-0.74447-1.6074-0.85742zm-1.7207 10.943h14v4c0 0.56413-0.43587 1-1 1h-12c-0.56413 0-1-0.43587-1-1z" />
</svg>
