<svg viewBox="0 0 24 24" xmlns="http://www.w3.org/2000/svg">
  <desc>laptop,computer,capacity</desc>
  <path d="m8.701 1a1.1 1.1 0 0 0-1.101 1.101v1.099h-1.099c-1.8095 0-3.301 1.4915-3.301 3.301v1.099h-1.099a1.1 1.1 0 0 0-1.101 1.101 1.1 1.1 0 0 0 1.101 1.099h1.099v4.4h-1.099a1.1 1.1 0 0 0-1.101 1.099 1.1 1.1 0 0 0 1.101 1.101h1.099v1.099c-2e-7 1.8095 1.4915 3.301 3.301 3.301h1.099v1.099a1.1 1.1 0 0 0 1.101 1.101 1.1 1.1 0 0 0 1.099-1.101v-1.099h4.4v1.099a1.1 1.1 0 0 0 1.099 1.101 1.1 1.1 0 0 0 1.101-1.101v-1.099h1.099c1.8095 1e-6 3.301-1.4915 3.301-3.301v-1.099h1.099a1.1 1.1 0 0 0 1.101-1.101 1.1 1.1 0 0 0-1.101-1.099h-1.099v-4.4h1.099a1.1 1.1 0 0 0 1.101-1.099 1.1 1.1 0 0 0-1.101-1.101h-1.099v-1.099c1e-6 -1.8095-1.4915-3.301-3.301-3.301h-1.099v-1.099a1.1 1.1 0 0 0-1.101-1.101 1.1 1.1 0 0 0-1.099 1.101v1.099h-4.4v-1.099a1.1 1.1 0 0 0-1.099-1.101zm-2.2 4.4h10.998c0.62053-1e-7 1.101 0.48048 1.101 1.101v10.998c0 0.62053-0.48048 1.101-1.101 1.101h-10.998c-0.62053 0-1.101-0.48048-1.101-1.101v-10.998c0-0.62053 0.48048-1.101 1.101-1.101zm4.4 3.301c-1.202-3e-7 -2.2 0.99804-2.2 2.2v2.198c-7e-7 1.202 0.99804 2.2 2.2 2.2h2.198c1.202 0 2.2-0.99804 2.2-2.2v-2.198c0-0.89859-0.63381-1.5325-1.4176-1.8713a1.1 1.1 0 0 0-0.7824-0.32869zm0 2.2h2.198v2.198h-2.198z" />
</svg>
