<svg viewBox="0 0 24 24" xmlns="http://www.w3.org/2000/svg">
  <path d="m1 1v2h22v-2h-22zm1 3v18h4c0-3-2-5-2-5 6-4 7-13 7-13h-9zm11 0s0.293 2.62 1.5 5.66a8.61 8.61 0 0 1 3.64-0.828 8.61 8.61 0 0 1 3.86 0.916v-5.74h-9zm3.94 7.4-0.361 1.81c-0.242 0.101-0.468 0.208-0.68 0.318-0.211 0.111-0.427 0.245-0.648 0.406l-1.75-0.543-1.21 2.05 1.39 1.21c-0.0403 0.242-0.0605 0.503-0.0605 0.785 0 0.282 0.0203 0.544 0.0605 0.785l-1.39 1.21 1.21 2.05 1.75-0.543c0.221 0.161 0.437 0.298 0.648 0.408 0.211 0.111 0.438 0.216 0.68 0.316l0.361 1.81h2.42l0.361-1.81c0.242-0.101 0.468-0.206 0.68-0.316 0.211-0.111 0.427-0.247 0.648-0.408l1.75 0.543 1.21-2.05-1.39-1.21c0.0403-0.242 0.0605-0.503 0.0605-0.785 0-0.282-0.0203-0.544-0.0605-0.785l1.39-1.21-1.21-2.05-1.75 0.543c-0.221-0.161-0.437-0.296-0.648-0.406-0.211-0.111-0.438-0.218-0.68-0.318l-0.361-1.81h-2.42zm1.21 3.62c0.664 0 1.23 0.236 1.71 0.709 0.473 0.473 0.709 1.04 0.709 1.71 0 0.664-0.236 1.23-0.709 1.71-0.473 0.473-1.04 0.711-1.71 0.711-0.664 0-1.23-0.238-1.71-0.711-0.473-0.473-0.709-1.04-0.709-1.71 0-0.664 0.236-1.23 0.709-1.71 0.473-0.473 1.04-0.709 1.71-0.709z"/>
</svg>
