<svg version="1.1" viewBox="0 0 24 24" xmlns="http://www.w3.org/2000/svg">
  <desc>door,exit,close,lock</desc>
  <path d="m10 3h-2c-1.66 0-3 1.35-3 3v13h-2c-0.555 0-1 0.449-1 1 0.00457 0.559 0.445 1 1 1h7c-3e-5 0.88 1.05 1.99 3 1.5 1.99-0.455 4.12-1.1 6-1.5h2c0.555 0 1-0.441 1-1 0-0.551-0.445-1-1-1h-2v-13c0-1.84-0.688-2.56-2-3l-4-1.5c-1.63-0.613-3 0.504-3 1.5zm3 0.5 4 1.5v14.5l-4 1c-1 0.25-1-0.313-1-1.5v-14c0-1 0.136-1.82 1-1.5zm-5 1.5h2l0.0039 14h-3v-13c0-0.547 0.449-1 1-1zm6 6c-0.552 0-1 0.448-1 1s0.448 1 1 1c0.552 0 1-0.448 1-1s-0.448-1-1-1z"/>
</svg>
