<svg version="1.1" viewBox="0 0 24 24" xmlns="http://www.w3.org/2000/svg">
  <desc>door,exit,close,lock</desc>
  <path d="m8 3c-1.645 0-3 1.355-3 3v13h-3a1 1 0 0 0-1 1 1 1 0 0 0 1 1h4 4a1 1 0 0 0 1-1 1 1 0 0 0-1-1h-3v-13c0-0.56413 0.43587-1 1-1h8c0.56413 0 1 0.43587 1 1v3a1 1 0 0 0 1 1 1 1 0 0 0 1-1v-3c0-1.645-1.355-3-3-3h-8zm2 8a1 1 0 0 0-1 1 1 1 0 0 0 1 1h0.009766a1 1 0 0 0 1-1 1 1 0 0 0-1-1h-0.009766zm8 1c-0.72222 0-1.4579 0.23535-2.0391 0.75195-0.58118 0.51661-0.96094 1.3314-0.96094 2.248v1c-1.0907 0-2 0.9093-2 2v3c0 1.0907 0.9093 2 2 2h6c1.0907 0 2-0.9093 2-2v-3c0-1.0907-0.9093-2-2-2v-1c0-0.91666-0.37976-1.7314-0.96094-2.248-0.58118-0.5166-1.3168-0.75195-2.0391-0.75195zm0 2c0.27778 0 0.54212 0.09799 0.71094 0.24805 0.16882 0.15006 0.28906 0.33529 0.28906 0.75195v1h-2v-1c0-0.41667 0.12025-0.60189 0.28906-0.75195 0.16882-0.15006 0.43316-0.24805 0.71094-0.24805zm-3 4h1 4 1v3h-6v-3z" />
</svg>
