<svg version="1.1" viewBox="0 0 24 24" xmlns="http://www.w3.org/2000/svg">
  <desc>door,exit,close,lock</desc>
  <path d="m8 3c-1.645 0-3 1.355-3 3v13h-3a1 1 0 0 0-1 1 1 1 0 0 0 1 1h4 4a1 1 0 0 0 1-1 1 1 0 0 0-1-1h-3v-13c0-0.56413 0.43587-1 1-1h8c0.56413 0 1 0.43587 1 1v3a1 1 0 0 0 1 1 1 1 0 0 0 1-1v-3c0-1.645-1.355-3-3-3h-8zm2 8a1 1 0 0 0-1 1 1 1 0 0 0 1 1h0.009766a1 1 0 0 0 1-1 1 1 0 0 0-1-1h-0.009766zm8 1.5a5 5 0 0 0-5 5 5 5 0 0 0 5 5 5 5 0 0 0 5-5 5 5 0 0 0-5-5zm0 2a3 3 0 0 1 3 3 3 3 0 0 1-0.30273 1.2832l-3.9805-3.9805a3 3 0 0 1 1.2832-0.30273zm-2.6973 1.7168 3.9805 3.9805a3 3 0 0 1-1.2832 0.30273 3 3 0 0 1-3-3 3 3 0 0 1 0.30273-1.2832z"/>
</svg>
