<svg version="1.1" viewBox="0 0 24 24" xmlns="http://www.w3.org/2000/svg">
  <desc>door,exit,close,lock</desc>
  <path d="m8 3c-1.66 0-3 1.35-3 3v13h-2c-0.555 0-1 0.449-1 1 0.00457 0.559 0.445 1 1 1h9v-2h-5v-13c0-0.547 0.449-1 1-1h8c0.558 0 1 0.453 1 1v6h2v-6c0-1.65-1.34-3-3-3zm2 8c-0.552 0-1 0.448-1 1s0.448 1 1 1 1-0.448 1-1-0.448-1-1-1zm8 3c-0.55 0-1.02 0.196-1.41 0.588-0.392 0.392-0.588 0.862-0.588 1.41v1c-0.283 0-0.521 0.0954-0.713 0.287-0.192 0.192-0.287 0.43-0.287 0.713v3c0 0.283 0.0954 0.521 0.287 0.713 0.192 0.192 0.43 0.287 0.713 0.287h4c0.283 0 0.521-0.0954 0.713-0.287 0.192-0.192 0.287-0.43 0.287-0.713v-3c0-0.283-0.0954-0.521-0.287-0.713-0.192-0.192-0.43-0.287-0.713-0.287v-1c0-0.55-0.196-1.02-0.588-1.41-0.392-0.392-0.862-0.588-1.41-0.588zm0 1c0.283 0 0.521 0.0954 0.713 0.287 0.192 0.192 0.287 0.43 0.287 0.713v1h-2v-1c0-0.283 0.0954-0.521 0.287-0.713 0.192-0.192 0.43-0.287 0.713-0.287z"/>
</svg>
