<svg viewBox="0 0 24 24" xmlns="http://www.w3.org/2000/svg">
  <desc>door,exit,close,lock</desc>
  <path d="m8 3c-1.66 0-3 1.35-3 3v13h-2c-0.555 0-1 0.449-1 1 0.00457 0.559 0.445 1 1 1h9v-2h-5v-13c0-0.547 0.449-1 1-1h8c0.558 0 1 0.453 1 1v6h2v-6c0-1.65-1.34-3-3-3h-8zm2 8c-0.552 0-1 0.448-1 1s0.448 1 1 1c0.552 0 1-0.448 1-1s-0.448-1-1-1zm8 3c-1.1 0-2.04 0.392-2.82 1.18-0.783 0.783-1.18 1.72-1.18 2.82s0.392 2.04 1.18 2.82c0.783 0.783 1.72 1.18 2.82 1.18s2.04-0.392 2.82-1.18c0.783-0.783 1.18-1.72 1.18-2.82s-0.392-2.04-1.18-2.82c-0.783-0.783-1.72-1.18-2.82-1.18zm0 1.5c0.7 0 1.29 0.241 1.78 0.725 0.483 0.483 0.725 1.08 0.725 1.78 0 0.2-0.0242 0.396-0.0742 0.588-0.05 0.192-0.127 0.379-0.227 0.562l-3.35-3.35c0.183-0.1 0.371-0.177 0.562-0.227 0.192-0.05 0.388-0.0742 0.588-0.0742zm-2.2 1.35 3.35 3.35c-0.183 0.1-0.371 0.177-0.562 0.227-0.192 0.05-0.388 0.0742-0.588 0.0742-0.7 0-1.29-0.241-1.78-0.725-0.483-0.483-0.725-1.08-0.725-1.78 0-0.2 0.0242-0.396 0.0742-0.588 0.05-0.192 0.127-0.379 0.227-0.562z" />
</svg>
