<svg version="1.1" viewBox="0 0 24 24" xmlns="http://www.w3.org/2000/svg">
  <desc>door,exit,open</desc>
  <path d="m12.357 1.6387c-0.77674 0.17817-1.4215 0.69459-1.8496 1.3613h-2.5078c-1.645 0-3 1.355-3 3v13h-3a1 1 0 0 0-1 1 1 1 0 0 0 1 1h8.1406c0.19499 1.1046 1.2167 1.9413 2.3438 1.6602a1.0001 1.0001 0 0 0 0-2e-3l6.6406-1.6582h2.875a1 1 0 0 0 1-1 1 1 0 0 0-1-1h-2v-13.438c-2.08e-4 -1.3713-0.94304-2.5776-2.2734-2.9102l-4-1c-0.46733-0.11682-0.93216-0.11391-1.3691-0.013672zm0.88477 1.9531 4 1c0.45012 0.11251 0.75774 0.50674 0.75781 0.9707v13.656l-6 1.5v-16.158c0.0016-0.67319 0.58867-1.1321 1.2422-0.96875zm-5.2422 1.4082h2v14h-3v-13c0-0.56413 0.43587-1 1-1zm6 6a1 1 0 0 0-1 1 1 1 0 0 0 1 1h0.0098a1 1 0 0 0 1-1 1 1 0 0 0-1-1z" />
</svg>
