<svg version="1.1" viewBox="0 0 24 24" xmlns="http://www.w3.org/2000/svg">
  	<desc>face,meh,man</desc>
  <path d="m12 1c-6.0633 0-11 4.9367-11 11 0 6.0633 4.9367 11 11 11 6.0633 0 11-4.9367 11-11 0-6.0633-4.9367-11-11-11zm0 2c4.9824 0 9 4.0176 9 9 0 4.9824-4.0176 9-9 9-4.9824 0-9-4.0176-9-9 0-4.9824 4.0176-9 9-9zm-3 5a1 1 0 0 0-1 1 1 1 0 0 0 1 1h0.0097656a1 1 0 0 0 1-1 1 1 0 0 0-1-1h-0.0097656zm6 0a1 1 0 0 0-1 1 1 1 0 0 0 1 1h0.009766a1 1 0 0 0 1-1 1 1 0 0 0-1-1h-0.009766zm-7 6a1 1 0 0 0-1 1 1 1 0 0 0 1 1h8a1 1 0 0 0 1-1 1 1 0 0 0-1-1h-8z" />
</svg>
