<svg version="1.1" viewBox="0 0 24 24" xmlns="http://www.w3.org/2000/svg">
  	<desc>face,man,angry</desc>
  <path d="m12 1c-6.0633 0-11 4.9367-11 11 0 6.0633 4.9367 11 11 11 6.0633 0 11-4.9367 11-11 0-6.0633-4.9367-11-11-11zm0 2c4.9824 0 9 4.0176 9 9 0 4.9824-4.0176 9-9 9-4.9824 0-9-4.0176-9-9 0-4.9824 4.0176-9 9-9zm-4.4336 4.0039a1 1 0 0 0-0.99414 0.625 1 1 0 0 0 0.55664 1.2988l1.1289 0.45117a1 1 0 0 0-0.25781 0.62109 1 1 0 0 0 1 1h0.0097656a1 1 0 0 0 1-1 1 1 0 0 0-0.015625-0.076172 1 1 0 0 0 0.93359-0.55273 1 1 0 0 0-0.55664-1.2988l-2.5-1a1 1 0 0 0-0.30469-0.068359zm8.8672 0a1 1 0 0 0-0.30469 0.068359l-2.5 1a1 1 0 0 0-0.55664 1.2988 1 1 0 0 0 0.95898 0.55273 1 1 0 0 0-0.03125 0.076172 1 1 0 0 0 1 1h0.009766a1 1 0 0 0 1-1 1 1 0 0 0-0.24219-0.63086l1.1035-0.44141a1 1 0 0 0 0.55664-1.2988 1 1 0 0 0-0.99414-0.625zm-4.4336 5.9961c-3.0333 0-4.8008 2.4004-4.8008 2.4004a1 1 0 0 0 0.20117 1.4004 1 1 0 0 0 1.4004-0.20117s1.2326-1.5996 3.1992-1.5996 3.1992 1.5996 3.1992 1.5996a1 1 0 0 0 1.4004 0.20117 1 1 0 0 0 0.20117-1.4004s-1.7675-2.4004-4.8008-2.4004z" />
</svg>
