<svg viewBox="0 0 24 24" xmlns="http://www.w3.org/2000/svg">
  <desc>icon</desc>
  <path d="m11.999 2.3751a1.0313 1.0313 0 0 1 0.98315 0.71639l4.5184 14.12 1.7683-5.5249a1.0313 1.0313 0 0 1 0.98178-0.71777h1.7188a1.0313 1.0313 0 0 1 0 2.0626h-0.96665l-2.5204 7.8776a1.0313 1.0313 0 0 1-1.9636 0l-4.5115-14.098-3.1488 9.969a1.0313 1.0313 0 0 1-1.9526 0.04125l-1.738-4.7796-0.096253 0.28601a1.0313 1.0313 0 0 1-0.97765 0.70539h-2.0626a1.0313 1.0313 0 0 1 0-2.0626h1.32l0.79477-2.3884a1.0313 1.0313 0 0 1 1.9484-0.027501l1.7119 4.7095 3.2107-10.167a1.0313 1.0313 0 0 1 0.98178-0.72189" />
</svg>
