<svg viewBox="0 0 24 24" xmlns="http://www.w3.org/2000/svg">
  <desc>circle,race</desc>
  <path d="m19.861 18.111c-2.4994-6.2419-5.4169-7.887-5.4169-11v-3.6667h0.61111a0.61111 0.61111 0 0 0 0.61111-0.61111v-1.2222a0.61111 0.61111 0 0 0-0.61111-0.61111h-6.1111a0.61111 0.61111 0 0 0-0.61111 0.61111v1.2222a0.61111 0.61111 0 0 0 0.61111 0.61111h0.61111v3.6667c0 3.113-2.9174 4.7581-5.4169 11-0.79567 1.9861-2.8392 4.8889 7.8613 4.8889 10.701 0 8.657-2.9028 7.8613-4.8889m-1.9763 2.1401c-0.858 0.25667-2.5654 0.54878-5.885 0.54878-3.3196 0-5.027-0.29211-5.885-0.54878-0.30433-0.09044-0.42289-0.44367-0.31533-0.76756 0.26889-0.81889 0.77611-2.2342 1.7246-3.8146 2.3173-3.861 4.7214 0.60744 6.7222 0.60744 2.0008 0 1.452-1.9079 2.2293-0.60744a18.822 18.822 0 0 1 1.7246 3.8146c0.10756 0.32389-0.011 0.67589-0.31533 0.76756" />
</svg>
