<svg viewBox="0 0 24 24" xmlns="http://www.w3.org/2000/svg">
  <desc>laptop,computer,capacity</desc>
  <path d="m4 4c-1.645 0-3 1.355-3 3v1.0625a1.0001 1.0001 0 0 0 0.7168 0.95898c0.53984 0.15902 0.71875 0.53221 0.71875 0.96094 0 0.42873-0.17891 0.79997-0.71875 0.95898a1.0001 1.0001 0 0 0-0.7168 0.95898v5.0996c0 1.645 1.355 3 3 3h16c1.645 0 3-1.355 3-3v-5.0625a1.0001 1.0001 0 0 0-0.7168-0.95898c-0.53984-0.15902-0.71875-0.53221-0.71875-0.96094 0-0.42873 0.17891-0.79997 0.71875-0.95898a1.0001 1.0001 0 0 0 0.7168-0.95898v-1.0996c0-1.645-1.355-3-3-3zm0 2h16c0.56413 0 1 0.43587 1 1v0.6543c-0.84883 0.57779-1.4355 1.4277-1.4355 2.3633 0 0.93563 0.58672 1.7874 1.4355 2.3652v1.6172h-18v-1.6543c0.84883-0.57779 1.4355-1.4277 1.4355-2.3633 0-0.93563-0.58672-1.7874-1.4355-2.3652v-0.61719c0-0.56413 0.43587-1 1-1zm4 2a1 1 0 0 0-1 1v2a1 1 0 0 0 1 1 1 1 0 0 0 1-1v-2a1 1 0 0 0-1-1zm4 0a1 1 0 0 0-1 1v2a1 1 0 0 0 1 1 1 1 0 0 0 1-1v-2a1 1 0 0 0-1-1zm4 0a1 1 0 0 0-1 1v2a1 1 0 0 0 1 1 1 1 0 0 0 1-1v-2a1 1 0 0 0-1-1zm-13 8h2v2h-1c-0.56413 0-1-0.43587-1-1zm4 0h2v2h-2zm4 0h2v2h-2zm4 0h2v2h-2zm4 0h2v1c0 0.56413-0.43587 1-1 1h-1z" />
</svg>
