<svg version="1.1" viewBox="0 0 24 24" xmlns="http://www.w3.org/2000/svg">
	<desc>message,dialog,question</desc>
  <path d="m12.064 0.94531c-2.3329 0.0080691-4.6036 0.78157-6.459 2.1055-3.9426 2.8131-6.1355 8.2028-3.543 13.66 0.072069 0.1818 0.084618 0.38096 0.044922 0.57226l-1.0371 3.207a1.0001 1.0001 0 0 0-0.029297 0.10742c-0.29088 1.4143 1.0771 2.7063 2.4727 2.3359a1.0001 1.0001 0 0 0 0.023438-0.00586l3.3438-0.97656c0.179-0.03253 0.36291-0.019728 0.5332 0.044922 5.4871 2.5233 10.849 0.26486 13.613-3.7109 2.7757-3.9923 3.0218-9.8397-1.2988-14.107-2.1603-2.1341-4.7016-3.1232-7.1973-3.2246-0.15598-0.0063381-0.31127-0.0083504-0.4668-0.0078125zm-0.039062 1.9551c0.12587-0.0012864 0.2526-5.687e-4 0.37891 0.0039063 2.0209 0.071595 4.0884 0.88797 5.918 2.6953 3.6591 3.6147 3.3668 8.2314 1.0645 11.543-2.3024 3.3116-6.5262 5.1923-11.195 3.0117a1.0001 1.0001 0 0 0-0.068359-0.027344c-0.52564-0.19957-1.0969-0.24806-1.6484-0.13867a1.0001 1.0001 0 0 0-0.085938 0.021485l-3.3809 0.98828 1.0293-3.1816a1.0001 1.0001 0 0 0 0.025391-0.091797c0.12864-0.58441 0.079893-1.1957-0.14062-1.752a1.0001 1.0001 0 0 0-0.029297-0.064453c-2.2375-4.6424-0.40824-8.8882 2.875-11.23 1.539-1.0982 3.3697-1.758 5.2578-1.7773zm-0.087891 3.0957c-1.551-0.0023414-3.1656 0.89388-3.791 2.6719a1 1 0 0 0 0.61133 1.2754 1 1 0 0 0 1.2754-0.61133c0.40595-1.154 1.3156-1.4645 2.2246-1.3086 0.90903 0.15592 1.6639 0.75131 1.6621 1.9746a1.0001 1.0001 0 0 0 0 0.0019531c0 0.5-0.43269 1.0033-1.0547 1.418-0.62199 0.41466-1.2617 0.63281-1.2617 0.63281a1 1 0 0 0-0.63281 1.2656 1 1 0 0 0 1.2656 0.63281s0.86026-0.28185 1.7383-0.86719c0.8776-0.58507 1.9443-1.5812 1.9453-3.0801v-0.001953c0.0022-2.153-1.5977-3.6511-3.3242-3.9473-0.21588-0.037029-0.43664-0.056306-0.6582-0.056641zm0.0625 10.004a1 1 0 0 0-1 1 1 1 0 0 0 1 1h0.009766a1 1 0 0 0 1-1 1 1 0 0 0-1-1h-0.009766zm-9 5v0.001953l-0.023438 0.005859 0.023438-0.007812z" />
</svg>
