<svg version="1.1" viewBox="0 0 24 24" xmlns="http://www.w3.org/2000/svg">
	<desc>message,dialog,notify,attention</desc>
  <path d="m12.064 0.94531c-2.3329 0.0080677-4.6036 0.78161-6.459 2.1055-3.9426 2.8132-6.1355 8.2032-3.543 13.66 0.072069 0.1818 0.084618 0.38097 0.044922 0.57226l-1.0371 3.207a1.0001 1.0001 0 0 0-0.029297 0.10742c-0.29088 1.4143 1.0771 2.7063 2.4727 2.3359a1.0001 1.0001 0 0 0 0.023438-0.00586l3.3438-0.97656c0.17698-0.032162 0.35867-0.019793 0.52734 0.042969 0.0019279 7.17e-4 0.0039349 0.001222 0.0058594 0.001953 5.487 2.5232 10.849 0.26486 13.613-3.7109 2.7757-3.9923 3.0218-9.8393-1.2988-14.107-2.1603-2.1341-4.7016-3.1232-7.1973-3.2246-0.15598-0.0063382-0.31127-0.0083504-0.4668-0.0078125zm-0.039062 1.9551c0.12587-0.0012873 0.2526-5.684e-4 0.37891 0.0039063 2.0209 0.071595 4.0884 0.88796 5.918 2.6953 3.6591 3.6147 3.3669 8.2314 1.0645 11.543-2.3024 3.3116-6.5259 5.1923-11.195 3.0117a1.0001 1.0001 0 0 0-0.068359-0.027344c-0.52564-0.19957-1.0969-0.24807-1.6484-0.13867a1.0001 1.0001 0 0 0-0.085938 0.021485l-3.3809 0.98828 1.0293-3.1816a1.0001 1.0001 0 0 0 0.025391-0.091797c0.12864-0.58441 0.079898-1.1957-0.14062-1.752a1.0001 1.0001 0 0 0-0.029297-0.064453c-2.2375-4.6424-0.40824-8.8878 2.875-11.23 1.539-1.0981 3.3697-1.758 5.2578-1.7773zm-0.025391 4.0996a1 1 0 0 0-1 1v4a1 1 0 0 0 1 1 1 1 0 0 0 1-1v-4a1 1 0 0 0-1-1zm0 8a1 1 0 0 0-1 1 1 1 0 0 0 1 1h0.009766a1 1 0 0 0 1-1 1 1 0 0 0-1-1h-0.009766zm-9 6v0.001953l-0.023438 0.005859 0.023438-0.007812z" />
</svg>
