<svg version="1.1" viewBox="0 0 24 24" xmlns="http://www.w3.org/2000/svg">
	<desc>message,dialog,add</desc>
  <path d="m12.531 0.95312c-2.4957-0.10141-4.9467 0.68554-6.9258 2.0977-3.9581 2.8242-6.1543 8.2457-3.5137 13.725l-0.029297-0.064454c0.072069 0.1818 0.084618 0.38097 0.044922 0.57227l-1.0371 3.207a1.0001 1.0001 0 0 0-0.029297 0.10742c-0.29088 1.4143 1.0771 2.7063 2.4727 2.3359a1.0001 1.0001 0 0 0 0.023437-0.0059l3.3438-0.97656c0.179-0.03253 0.36291-0.01973 0.5332 0.04492l-0.068359-0.0293c5.5108 2.5736 10.906 0.31068 13.682-3.6816 2.7757-3.9923 3.0218-9.8393-1.2988-14.107-2.1603-2.1341-4.7016-3.1232-7.1973-3.2246zm-0.12695 1.9512c2.0209 0.071595 4.0884 0.88796 5.918 2.6953 3.6591 3.6147 3.3669 8.2314 1.0645 11.543s-6.5259 5.1923-11.195 3.0117a1.0001 1.0001 0 0 0-0.068359-0.02734c-0.52564-0.19957-1.0969-0.24807-1.6484-0.13868a1.0001 1.0001 0 0 0-0.085937 0.02148l-3.3809 0.98828 1.0293-3.1816a1.0001 1.0001 0 0 0 0.025391-0.0918c0.12864-0.58441 0.079898-1.1957-0.14062-1.752a1.0001 1.0001 0 0 0-0.029297-0.06445c-2.2375-4.6424-0.40824-8.8877 2.875-11.23 1.6416-1.1714 3.6158-1.845 5.6367-1.7734zm-0.4043 4.0957a1 1 0 0 0-1 1v3h-3a1 1 0 0 0-1 1 1 1 0 0 0 1 1h3v3a1 1 0 0 0 1 1 1 1 0 0 0 1-1v-3h3a1 1 0 0 0 1-1 1 1 0 0 0-1-1h-3v-3a1 1 0 0 0-1-1zm-9 14v2e-3l-0.023437 0.0059z" />
</svg>
