<svg version="1.1" viewBox="0 0 24 24" xmlns="http://www.w3.org/2000/svg">
	<desc>message,dialog,heard,love</desc>
  <path d="m12.064 0.94531c-2.3329 0.0080677-4.6036 0.78161-6.459 2.1055-3.9426 2.8132-6.1355 8.2032-3.543 13.66 0.072069 0.1818 0.084618 0.38097 0.044922 0.57226l-1.0371 3.207a1.0001 1.0001 0 0 0-0.029297 0.10742c-0.29088 1.4143 1.0771 2.7063 2.4727 2.3359a1.0001 1.0001 0 0 0 0.023437-0.0059l3.3438-0.97656c0.179-0.03253 0.36291-0.01973 0.5332 0.04492 5.487 2.5233 10.849 0.2649 13.613-3.7109 2.7757-3.9923 3.0218-9.8393-1.2988-14.107-2.1603-2.1341-4.7016-3.1232-7.1973-3.2246-0.15598-0.006338-0.31127-0.00835-0.4668-0.0078125zm-0.03906 1.9551c0.12587-0.00129 0.2526-5.684e-4 0.37891 0.00391 2.0209 0.071595 4.0884 0.88796 5.918 2.6953 3.6591 3.6147 3.3669 8.2314 1.0645 11.543-2.3024 3.3116-6.5259 5.1923-11.195 3.0117a1.0001 1.0001 0 0 0-0.068359-0.02734c-0.52564-0.19958-1.0969-0.24808-1.6484-0.13868a1.0001 1.0001 0 0 0-0.085937 0.02148l-3.3809 0.98828 1.0293-3.1816a1.0001 1.0001 0 0 0 0.025391-0.0918c0.12864-0.58441 0.079898-1.1957-0.14062-1.752a1.0001 1.0001 0 0 0-0.029297-0.06445c-2.2375-4.6424-0.40824-8.8877 2.875-11.23 1.539-1.0981 3.3697-1.758 5.2578-1.7773zm-2.0488 4.0547c-0.10073-0.0018724-0.20099 8.138e-4 -0.30078 0.0097657-0.9997 0.08968-1.8915 0.56556-2.5527 1.248-0.66125 0.68249-1.108 1.5898-1.166 2.5918-0.058042 1.002 0.31296 2.0831 1.1484 2.957l3.4453 3.6172c0.77858 0.81908 2.1194 0.82085 2.8984 2e-3l3.4453-3.6191 2e-3 -2e-3c0.71355-0.74705 1.1107-1.7423 1.1074-2.7754-0.0048-1.6899-1.0398-3.0491-2.375-3.6426-1.0997-0.48869-2.4045-0.31936-3.5489 0.33008-0.67489-0.433-1.3984-0.70369-2.1035-0.7168zm0.054687 1.9941c0.41132 4.219e-4 0.83461 0.14032 1.3008 0.55859a1.0001 1.0001 0 0 0 1.3359 0c0.67091-0.60225 1.4656-0.64331 2.1484-0.33984 0.6828 0.30347 1.185 0.9207 1.1875 1.8223 0.0016 0.51754-0.19697 1.0147-0.55469 1.3887a1.0001 1.0001 0 0 0-2e-3 2e-3l-3.4472 3.6191-3.4473-3.6191a1.0001 1.0001 0 0 0-0.00195-2e-3c-0.49463-0.5173-0.62476-0.99102-0.59766-1.4589 0.027104-0.46792 0.25131-0.94691 0.60742-1.3145 0.35611-0.36754 0.82809-0.60656 1.2949-0.64844 0.058354-0.00523 0.11702-0.00787 0.17578-0.00781zm-7.0312 12.051v2e-3l-0.023437 0.0059z" />
</svg>
