<svg version="1.1" viewBox="0 0 24 24" xmlns="http://www.w3.org/2000/svg">
	<desc>message,dialog,off</desc>
  <path d="m2 1a1 1 0 0 0-0.70703 0.29297 1 1 0 0 0 0 1.4141l2.334 2.334c-2.7211 3.2841-3.4129 7.8372-1.5352 11.734l-0.029297-0.066407c0.072069 0.1818 0.084618 0.38097 0.044922 0.57227l-1.0371 3.209a1.0001 1.0001 0 0 0-0.029297 0.10547c-0.29088 1.4143 1.0771 2.7063 2.4727 2.3359a1.0001 1.0001 0 0 0 0.023437-0.0059l3.3379-0.97652c0.18089-0.03402 0.36686-0.02046 0.53906 0.04492l-0.068359-0.02734c3.8756 1.81 8.3674 1.0992 11.615-1.5918l2.332 2.332a1 1 0 0 0 1.4141 0 1 1 0 0 0 0-1.4141l-20-20a1 1 0 0 0-0.70703-0.29297zm9.293 0.00977c-1.0878 0.074103-2.1992 0.3155-3.3066 0.74804a1 1 0 0 0-0.56836 1.2969 1 1 0 0 0 1.2949 0.56641c3.6906-1.4414 7.2748-0.34618 9.6406 2.0215 2.3658 2.3677 3.4599 5.9531 2.0156 9.6426a1 1 0 0 0 0.56641 1.2969 1 1 0 0 0 1.2949-0.56836c1.7336-4.4285 0.41258-8.9075-2.4609-11.783-2.1551-2.1568-5.2131-3.443-8.4766-3.2207zm-6.252 5.4453 12.506 12.506c-2.6485 2.1058-6.236 2.6502-9.3555 1.1934a1.0001 1.0001 0 0 0-0.068359-0.029297c-0.52564-0.19956-1.0969-0.24806-1.6484-0.13867a1.0001 1.0001 0 0 0-0.085937 0.02148l-3.3809 0.98829 1.0293-3.1797a1.0001 1.0001 0 0 0 0.025391-0.09375c0.12864-0.58441 0.079898-1.1937-0.14062-1.75a1.0001 1.0001 0 0 0-0.029297-0.066406c-1.5118-3.1377-0.98137-6.7726 1.1484-9.4512z" />
</svg>
