<svg version="1.1" viewBox="0 0 24 24" xmlns="http://www.w3.org/2000/svg">
	<desc>message,dialog,dashed,ghost</desc>
  <path d="m9.9102 1.2012a1 1 0 0 0-0.79102 1.1699 1 1 0 0 0 1.1699 0.79297c1.1295-0.21859 2.2923-0.21859 3.4219 0a1 1 0 0 0 1.1699-0.79297 1 1 0 0 0-0.79102-1.1699c-1.3805-0.26716-2.7992-0.26716-4.1797 0zm-4.0469 1.6699c-1.1705 0.7868-2.1796 1.7914-2.9707 2.959a1 1 0 0 0 0.26758 1.3887 1 1 0 0 0 1.3887-0.26758c0.64731-0.95533 1.472-1.7762 2.4297-2.4199a1 1 0 0 0 0.27148-1.3887 1 1 0 0 0-1.3867-0.27148zm12.307 0.021484a1 1 0 0 0-1.3887 0.26562 1 1 0 0 0 0.26758 1.3906c0.95533 0.64731 1.7762 1.472 2.4199 2.4297a1 1 0 0 0 1.3887 0.27148 1 1 0 0 0 0.27148-1.3887c-0.7868-1.1705-1.7914-2.1776-2.959-2.9688zm-15.799 6.2266a1 1 0 0 0-1.1699 0.79102c-0.26716 1.3805-0.26716 2.7992 0 4.1797a1 1 0 0 0 1.1699 0.79102 1 1 0 0 0 0.79297-1.1699c-0.21859-1.1295-0.21859-2.2923 0-3.4219a1 1 0 0 0-0.79297-1.1699zm19.258 0a1 1 0 0 0-0.79297 1.1699c0.21859 1.1295 0.21859 2.2923 0 3.4219a1 1 0 0 0 0.79297 1.1699 1 1 0 0 0 1.1699-0.79102c0.26716-1.3805 0.26716-2.7992 0-4.1797a1 1 0 0 0-1.1699-0.79102zm-0.78711 7.6621a1 1 0 0 0-1.3906 0.26758c-0.64731 0.95533-1.472 1.7781-2.4297 2.4219a1 1 0 0 0-0.27148 1.3867 1 1 0 0 0 1.3887 0.27344c1.1705-0.7868 2.1776-1.7914 2.9688-2.959a1 1 0 0 0-0.26562-1.3906zm-17.547 0.08594a1 1 0 0 0-1.2598 0.64258l-0.96484 2.9805a1.0001 1.0001 0 0 0-0.029297 0.10547c-0.29261 1.4149 1.0762 2.7088 2.4727 2.3379a1.0001 1.0001 0 0 0 0.023437-0.0059l2.9062-0.85156a1 1 0 0 0 0.67969-1.2402 1 1 0 0 0-1.2402-0.67969l-2.875 0.8418 0.92969-2.8711a1 1 0 0 0-0.64258-1.2598zm6.9941 3.9688a1 1 0 0 0-1.1699 0.79297 1 1 0 0 0 0.79102 1.1699c1.3805 0.26716 2.7992 0.26716 4.1797 0a1 1 0 0 0 0.79102-1.1699 1 1 0 0 0-1.1699-0.79297c-1.1295 0.21859-2.2923 0.21859-3.4219 0zm-7.2891 0.16406v2e-3l-0.023437 0.0059z" />
</svg>
