<svg version="1.1" viewBox="0 0 24 24" xmlns="http://www.w3.org/2000/svg">
	<desc>message,dialog,answer</desc>
  <path d="m12.064 0.94531c-2.3329 0.0080677-4.6036 0.78161-6.459 2.1055-3.9426 2.8132-6.1355 8.2032-3.543 13.66 0.072069 0.1818 0.084618 0.38097 0.044922 0.57226l-1.0371 3.207c-0.011753 0.03524-0.021534 0.0711-0.029297 0.10742-0.29088 1.4143 1.0771 2.7063 2.4727 2.3359 0.00784-0.0019 0.015649-0.0038 0.023437-0.0059l3.3438-0.97656c0.179-0.03253 0.36291-0.01973 0.5332 0.04492 5.487 2.5233 10.849 0.2649 13.613-3.7109 2.7757-3.9923 3.0218-9.8393-1.2988-14.107-2.1603-2.1341-4.7016-3.1232-7.1973-3.2246-0.15598-0.006338-0.31127-0.00835-0.4668-0.007813zm-0.03906 1.9551c0.12587-0.00129 0.2526-5.684e-4 0.37891 0.00391 2.0209 0.071595 4.0884 0.88796 5.918 2.6953 3.6591 3.6147 3.3669 8.2314 1.0645 11.543-2.3024 3.3116-6.5259 5.1923-11.195 3.0117-0.022443-0.01-0.045245-0.01907-0.068359-0.02734-0.52564-0.19957-1.0969-0.24807-1.6484-0.13867-0.028949 0.0059-0.057623 0.01306-0.085937 0.02148l-3.3809 0.98828 1.0293-3.1816c0.00992-0.03018 0.01839-0.06081 0.025391-0.0918 0.12864-0.58441 0.079898-1.1957-0.14062-1.752-9e-3 -0.02182-0.018774-0.04332-0.029297-0.06445-2.2375-4.6424-0.40824-8.8878 2.875-11.23 1.539-1.0981 3.3697-1.758 5.2578-1.7773zm-2.0254 5.0996c-0.2652 4.01e-5 -0.51953 0.10542-0.70703 0.29297l-3 3c-0.14423 0.14423-0.29297 0.34533-0.29297 0.70703s0.14028 0.56521 0.29297 0.70703l3 3c0.39051 0.39042 1.0236 0.39042 1.4141 0 0.39042-0.39051 0.39042-1.0236 0-1.4141l-1.293-1.293h5.5859c0.56413 0 1 0.43587 1 1v1c0 0.55228 0.44772 1 1 1s1-0.44772 1-1v-1c0-1.645-1.355-3-3-3h-5.5859l1.293-1.293c0.39042-0.39051 0.39042-1.0236 0-1.4141-0.1875-0.18755-0.44183-0.29293-0.70703-0.29297zm-7 13v2e-3l-0.023437 0.0059z" />
</svg>
