<svg version="1.1" viewBox="0 0 24 24" xmlns="http://www.w3.org/2000/svg">
  <path d="m2.9 18s-0.85-0.98-1.5-1.9c-2.7-4.8-1.6-11 2.6-15l5.1 4.5c-0.63 0.39-1.2 0.92-1.6 1.6-0.49 0.78-0.79 1.7-0.79 2.7 0 2.2 1.5 4 3.4 4.8l0.17 2.4c-3.3-0.66-5.8-3.5-5.8-7 0-1.6 0.49-3 1.4-4.1l-1.6-1.5-0.0061-0.0049c-2.7 3.5-2.5 8.4 0.36 12zm11-2.9c2-0.66 3.4-2.6 3.4-4.8 0-0.98-0.29-2-0.79-2.7-0.4-0.63-0.93-1.2-1.6-1.6l3.3-3-1.6e-4 -1.7e-4 1.9-1.6c4.1 3.6 5.1 9.7 2.6 15l-1.5 2-1.7-1.6c2.9-3.3 3-8.3 0.36-12l-0.0061 0.0049-1.6 1.5c0.84 1.2 1.4 2.6 1.4 4.1 0 3.4-2.5 6.4-5.8 7zm-1.6 8 0.84-8.3 0.25-1.9c0.98-0.41 1.7-1.5 1.7-2.6 0-1.6-1.2-2.9-2.9-2.9-1.6 0-2.9 1.2-2.9 2.9 0 1.2 0.7 2.1 1.7 2.6l0.22 1.7z" stroke-width=".98"/>
</svg>
