<svg version="1.1" viewBox="0 0 24 24" xmlns="http://www.w3.org/2000/svg">
  <desc>pet,dog,cat,animal,paw</desc>
  <path d="m10.996 1c-1.6455 0-3 1.3548-3 3s1.3545 3 3 3c1.6455 0 3.002-1.3548 3.002-3s-1.3565-3-3.002-3zm0 2c0.56429 0 1 0.43582 1 1s-0.43571 1-1 1-1-0.43582-1-1c0-0.56418 0.43571-1 1-1zm7.002 2c-1.6455 0-3 1.3548-3 3s1.3545 3 3 3c1.6455 0 3.002-1.3548 3.002-3s-1.3565-3-3.002-3zm0 2c0.56429 0 1 0.43582 1 1s-0.43571 1-1 1c-0.56429 0-1-0.43582-1-1s0.43571-1 1-1zm-12.506 2c-2.4717 0.00432-4.1413 1.8531-4.4414 3.8262-0.30006 1.9731 0.74481 4.2321 3.1035 4.9707a1.0004 1.0002 0 0 0 0.0039062 0c1.1107 0.34499 1.6954 0.93199 2.041 2.0469a1.0004 1.0002 0 0 0 0 0.001953c0.73926 2.3598 3.0024 3.4051 4.9766 3.1035 1.9741-0.30159 3.8215-1.9745 3.8223-4.4473v-3.5c0-3.3022-2.6991-6.002-6.002-6.002h-3.502a1.0004 1.0002 0 0 0-0.0019531 0zm0.0019531 2h3.502c2.2216 0 4 1.7808 4 4.002v3.5c-4.98e-4 1.5341-0.976 2.2955-2.123 2.4707-1.1466 0.17514-2.3027-0.26016-2.7617-1.7227v-0.001953c-0.50828-1.6378-1.7251-2.8531-3.3613-3.3613h0.0039062c-1.4631-0.45815-1.8989-1.6135-1.7246-2.7598 0.17424-1.1457 0.93323-2.1233 2.4648-2.127zm14.506 2.002c-1.6455 0-3.002 1.3548-3.002 3 0 1.6452 1.3565 3 3.002 3s3-1.3548 3-3c0-1.6452-1.3545-3-3-3zm0 2c0.56429 0 1 0.43582 1 1 0 0.56418-0.43571 1-1 1s-1.002-0.43582-1.002-1c0-0.56418 0.43766-1 1.002-1z" />
</svg>
