<svg version="1.1" viewBox="0 0 24 24" xmlns="http://www.w3.org/2000/svg">
  <desc>token,key,access,crypto,refresh,lock</desc>
  <path d="m3 2a1 1 0 0 0-1 1v5a1.0001 1.0001 0 0 0 0.068359 0.3418 1 1 0 0 0 0.033203 0.078125 1.0001 1.0001 0 0 0 0.47852 0.47852 1 1 0 0 0 0.078125 0.033203 1.0001 1.0001 0 0 0 0.3418 0.068359h5a1 1 0 0 0 1-1 1 1 0 0 0-1-1h-2.5859l0.54102-0.54102c1.622-1.5694 3.7881-2.4504 6.0449-2.459 3.6064 0 6.2327 2.1417 7.3906 4.9375 1.1579 2.7958 0.81535 6.169-1.7344 8.7188s-5.923 2.8923-8.7188 1.7344c-2.7958-1.1579-4.9375-3.7843-4.9375-7.3906a1 1 0 0 0-1-1 1 1 0 0 0-1 1c0 4.4123 2.7051 7.8017 6.1738 9.2383 3.4687 1.4366 7.7768 0.95168 10.896-2.168 3.1197-3.1197 3.6046-7.4278 2.168-10.896-1.4366-3.4687-4.826-6.1738-9.2383-6.1738a1.0001 1.0001 0 0 0-0.003906 0c-2.7743 0.0092909-5.4378 1.0924-7.4316 3.0215a1.0001 1.0001 0 0 0-0.011719 0.011719l-0.55273 0.55273v-2.5859a1 1 0 0 0-1-1zm12.5 5.5a1 1 0 0 0-0.70703 0.29297l-3.5039 3.5039c-0.39168-0.189-0.82857-0.29688-1.2891-0.29688-1.645 0-3 1.355-3 3s1.355 3 3 3c1.645 0 3-1.355 3-3 0-0.4605-0.10787-0.89738-0.29688-1.2891l1.7969-1.7969 0.29297 0.29297a1 1 0 0 0 1.4141 0 1 1 0 0 0 0-1.4141l-0.29297-0.29297 0.29297-0.29297a1 1 0 0 0 0-1.4141 1 1 0 0 0-0.70703-0.29297zm-5.5 5.5c0.56413 0 1 0.43587 1 1s-0.43587 1-1 1c-0.56413 0-1-0.43587-1-1s0.43587-1 1-1z" />
</svg>
