<svg version="1.1" viewBox="0 0 24 24" xmlns="http://www.w3.org/2000/svg">
  <desc>toilet,restroom,washroom</desc>
  <path d="m4.4738 7.3682c1.2774 0 2.3159-1.0385 2.3159-2.3159s-1.0385-2.3159-2.3159-2.3159-2.3159 1.0385-2.3159 2.3159 1.0385 2.3159 2.3159 2.3159m13.895 0c1.2774 0 2.3159-1.0385 2.3159-2.3159s-1.0385-2.3159-2.3159-2.3159-2.3159 1.0385-2.3159 2.3159 1.0385 2.3159 2.3159 2.3159m4.6064 8.1961-1.6501-6.7233c-0.11941-0.48851-0.56088-0.83227-1.0783-0.8757-0.54279 0.351-1.1869 0.56088-1.8817 0.56088-0.69477 0-1.3389-0.20988-1.8817-0.56088-0.51746 0.043423-0.95892 0.38719-1.0783 0.8757l-1.6501 6.7233c-0.12665 0.5464 0.30758 1.0675 0.89379 1.0675h1.983v3.7633c0 0.48127 0.38719 0.86846 0.86846 0.86846h1.7369c0.48127 0 0.86846-0.38719 0.86846-0.86846v-3.7633h1.983c0.58621 0 1.0204-0.52108 0.88655-1.0675m-10.975-12.828h-1.1579c-0.31844 0-0.57897 0.26054-0.57897 0.57897v17.369c0 0.31844 0.26054 0.57897 0.57897 0.57897h1.1579c0.31844 0 0.57897-0.26054 0.57897-0.57897v-17.369c0-0.31843-0.26054-0.57897-0.57897-0.57897m-5.6414 5.2252c-0.54279 0.35462-1.1905 0.5645-1.8853 0.5645s-1.3425-0.20988-1.8853-0.5645c-0.89017 0.07599-1.5886 0.81418-1.5886 1.7224v4.9213c0 0.48127 0.38719 0.86846 0.86846 0.86846h0.28949v4.9213c0 0.48127 0.38719 0.86846 0.86846 0.86846h2.8949c0.48127 0 0.86846-0.38719 0.86846-0.86846v-4.9213h0.28949c0.48127 0 0.86846-0.38719 0.86846-0.86846v-4.9213c0-0.90826-0.69838-1.6465-1.5886-1.7224" />
</svg>
