<svg version="1.1" viewBox="0 0 24 24" xmlns="http://www.w3.org/2000/svg">
  <desc>face,robot,automation</desc>
  <path d="m12 1.3652c-0.55 0-1.0996 0.36628-1.0996 1.0996v1.834h-3.3008c-2.43 0-4.4004 1.9703-4.4004 4.4004-1.3148 0.43648-2.2008 1.6654-2.1992 3.0508v3.4316c0 1.3845 0.88509 2.6142 2.1992 3.0527 0 2.43 1.9703 4.3984 4.4004 4.3984h8.8008c2.43 0 4.4004-1.9684 4.4004-4.3984 1.3148-0.43648 2.2008-1.6674 2.1992-3.0527v-3.4316c0-1.3831-0.88509-2.6108-2.1992-3.0508 0-2.43-1.9703-4.4004-4.4004-4.4004h-3.3008v-1.834c0-0.73333-0.54961-1.0996-1.0996-1.0996zm-4.4004 5.1934h8.8008c1.215 0 2.1992 0.9842 2.1992 2.1992v1.5859l1.5059 0.5c0.41627 0.1372 0.69701 0.52655 0.69531 0.96484v3.4297c0.001703 0.43829-0.27904 0.82959-0.69531 0.9668l-1.5059 0.5v1.5859c0 1.215-0.9842 2.2012-2.1992 2.2012h-8.8008c-1.215-1e-6 -2.1992-0.98615-2.1992-2.2012v-1.5859l-1.5059-0.5c-0.41507-0.13787-0.69531-0.52777-0.69531-0.96484v-3.4297c-0.001703-0.43829 0.27904-0.82764 0.69531-0.96484l1.5059-0.50195v-1.5859c0-1.215 0.9842-2.1992 2.1992-2.1992zm1.834 2.873c-0.55 0-1.0996 0.36628-1.0996 1.0996v1.4668c0 1.4667 2.1992 1.4667 2.1992 0v-1.4668c0-0.73333-0.54961-1.0996-1.0996-1.0996zm5.1328 0c-0.55 0-1.0996 0.36628-1.0996 1.0996v1.4668c0 0.60751 0.4921 1.0996 1.0996 1.0996 0.60751 0 1.0996-0.4921 1.0996-1.0996v-1.4668c0-0.73333-0.54961-1.0996-1.0996-1.0996zm-5.1328 5.8672c-1.4667 0-1.4667 2.1992 0 2.1992h5.1328c0.60751 0 1.0996-0.4921 1.0996-1.0996 0-0.60751-0.4921-1.0996-1.0996-1.0996h-5.1328z" />
</svg>
