<svg version="1.1" viewBox="0 0 24 24" xmlns="http://www.w3.org/2000/svg">
  <desc>server,pc,cloud,power,flash,capacity</desc>
  <path d="m4 1c-1.645 0-3 1.355-3 3v4c0 1.645 1.355 3 3 3h2a1 1 0 0 0 1-1 1 1 0 0 0-1-1h-2c-0.56413 0-1-0.43587-1-1v-4c0-0.56413 0.43587-1 1-1h16c0.56413 0 1 0.43587 1 1v4c0 0.56413-0.43587 1-1 1h-2a1 1 0 0 0-1 1 1 1 0 0 0 1 1h2c1.645 0 3-1.355 3-3v-4c0-1.645-1.355-3-3-3h-16zm2 4a1 1 0 0 0-1 1 1 1 0 0 0 1 1h0.0097656a1 1 0 0 0 1-1 1 1 0 0 0-1-1h-0.0097656zm6.959 0a1 1 0 0 0-0.79102 0.44531l-4 6a1.0001 1.0001 0 0 0 0.83203 1.5547h4.1309l-2.9629 4.4453a1 1 0 0 0 0.27734 1.3867 1 1 0 0 0 1.3867-0.27734l4-6a1.0001 1.0001 0 0 0-0.83203-1.5547h-4.1309l2.9629-4.4453a1 1 0 0 0-0.27734-1.3867 1 1 0 0 0-0.5957-0.16797zm-8.959 8c-1.645 0-3 1.355-3 3v4c0 1.645 1.355 3 3 3h16c1.645 0 3-1.355 3-3v-4c0-1.645-1.355-3-3-3h-2a1 1 0 0 0-1 1 1 1 0 0 0 1 1h2c0.56413 0 1 0.43587 1 1v4c0 0.56413-0.43587 1-1 1h-16c-0.56413 0-1-0.43587-1-1v-4c0-0.56413 0.43587-1 1-1h2a1 1 0 0 0 1-1 1 1 0 0 0-1-1h-2zm2 4a1 1 0 0 0-1 1 1 1 0 0 0 1 1h0.0097656a1 1 0 0 0 1-1 1 1 0 0 0-1-1h-0.0097656z" />
</svg>
