<svg version="1.1" viewBox="0 0 24 24" xmlns="http://www.w3.org/2000/svg">
  <desc>server,pc,cloud,config,setting</desc>
  <path d="m4 1c-1.645 0-3 1.355-3 3v4c0 1.645 1.355 3 3 3h0.5c0.55228 0 1-0.44772 1-1 0-0.55228-0.44772-1-1-1h-0.5c-0.56413 0-1-0.43587-1-1v-4c0-0.56413 0.43587-1 1-1h16c0.56413 0 1 0.43587 1 1v4c0 0.56413-0.43587 1-1 1h-0.5c-0.55228 0-1 0.44772-1 1 0 0.55228 0.44772 1 1 1h0.5c1.645 0 3-1.355 3-3v-4c0-1.645-1.355-3-3-3h-16zm2 4c-0.55228 0-1 0.44772-1 1s0.44772 1 1 1h0.0097656c0.55228 0 1-0.44772 1-1s-0.44772-1-1-1h-0.0097656zm4.4219 2.3047c-0.027875 0.0013145-0.055923 0.0041174-0.083984 0.0078125-0.08661 0.011679-0.17132 0.034661-0.25195 0.068359-0.51022 0.21142-0.75244 0.79643-0.54102 1.3066l0.042969 0.10547c-0.3204 0.22975-0.59519 0.49507-0.82227 0.78516l-0.078125-0.033203c-0.24453-0.10103-0.51914-0.10103-0.76367 0-0.24566 0.10106-0.44102 0.29572-0.54297 0.54102-0.21142 0.51021 0.0308 1.0952 0.54102 1.3066l0.082031 0.035156c-0.045823 0.3804-0.03486 0.76309 0.025391 1.1348l-0.10742 0.044922c-0.51022 0.21142-0.75244 0.79643-0.54102 1.3066 0.21142 0.51022 0.79643 0.75244 1.3066 0.54102l0.10742-0.044922c0.22035 0.3063 0.48138 0.58507 0.7832 0.82227l-0.033203 0.080078c-0.21142 0.51021 0.030799 1.0952 0.54102 1.3066 0.51021 0.21142 1.0952-0.030802 1.3066-0.54102l0.052734-0.12695c0.34945 0.01989 0.71363-0.003697 1.082-0.060547l0.078125 0.1875c0.21066 0.51098 0.79589 0.75417 1.3066 0.54297 0.51098-0.21066 0.75417-0.79588 0.54297-1.3066l-0.044922-0.10742c0.32098-0.22972 0.59684-0.4949 0.82422-0.78516l0.078125 0.033203c0.51021 0.21142 1.0952-0.0308 1.3066-0.54102 0.21142-0.51021-0.030802-1.0952-0.54102-1.3066l-0.082031-0.035156c0.04613-0.38069 0.036492-0.76274-0.023438-1.1348l0.10547-0.044922c0.51022-0.21142 0.75244-0.79643 0.54102-1.3066-0.21143-0.51021-0.79643-0.75244-1.3066-0.54102l-0.13867 0.056641c-0.22643-0.2804-0.49202-0.53563-0.78125-0.76562l0.0625-0.14844c0.21142-0.51022-0.0308-1.0952-0.54102-1.3066-0.51021-0.21142-1.0952 0.0308-1.3066 0.54102l-0.056641 0.13477c-0.35202-0.042597-0.70611-0.0050694-1.0801 0.052734l-0.078125-0.1875c-0.16221-0.39235-0.55258-0.63691-0.9707-0.61719zm1.5781 2.5684a2.1278 2.1278 0 0 1 2.127 2.127 2.1278 2.1278 0 0 1-2.127 2.1289 2.1278 2.1278 0 0 1-2.127-2.1289 2.1278 2.1278 0 0 1 2.127-2.127zm-8 3.127c-1.645 0-3 1.355-3 3v4c0 1.645 1.355 3 3 3h16c1.645 0 3-1.355 3-3v-4c0-1.645-1.355-3-3-3h-0.5c-0.55228 0-1 0.44772-1 1s0.44772 1 1 1h0.5c0.56413 0 1 0.43587 1 1v4c0 0.56413-0.43587 1-1 1h-16c-0.56413 0-1-0.43587-1-1v-4c0-0.56413 0.43587-1 1-1h0.5c0.55228 0 1-0.44772 1-1s-0.44772-1-1-1h-0.5zm2 4c-0.55228 0-1 0.44772-1 1s0.44772 1 1 1h0.0097656c0.55228 0 1-0.44772 1-1s-0.44772-1-1-1h-0.0097656z" />
</svg>
