<svg version="1.1" viewBox="0 0 24 24" xmlns="http://www.w3.org/2000/svg">
  <desc>server,pc,cloud,off</desc>
  <path d="m2 1a1 1 0 0 0-0.70703 0.29297 1 1 0 0 0-0.16797 1.0098c-0.010542 0.0487-0.041008 0.11128-0.048828 0.1582-0.098046 0.58827-0.076172 1.2891-0.076172 2.5391v3c0 1.645 1.355 3 3 3h5.5859l2 2h-7.5859c-1.645 0-3 1.355-3 3v4c0 1.645 1.355 3 3 3h16.5a1.0001 1.0001 0 0 0 0.44727-0.10547l0.35547-0.17773-0.0098-0.0098a1 1 0 0 0 1.4141 0 1 1 0 0 0 0-1.4141l-20-20a1 1 0 0 0-0.707-0.29293zm5 0a1 1 0 0 0-1 1 1 1 0 0 0 1 1h13c0.56413 0 1 0.43587 1 1v4c0 0.56413-0.43587 1-1 1h-5a1 1 0 0 0-1 1 1 1 0 0 0 1 1h5c1.645 0 3-1.355 3-3v-4c0-1.645-1.355-3-3-3zm-3.9883 3.4258 4.5742 4.5742h-3.5859c-0.56413 0-1-0.43587-1-1v-3c0-0.32463 0.0090556-0.3137 0.011719-0.57422zm15.988 8.5742a1 1 0 0 0-1 1 1 1 0 0 0 1 1h1c0.56413 0 1 0.43587 1 1v1a1 1 0 0 0 1 1 1 1 0 0 0 1-1v-1c0-1.645-1.355-3-3-3zm-15 2h9.5859l6 6h-15.586c-0.56413 0-1-0.43587-1-1v-4c0-0.56413 0.43587-1 1-1zm2 2a1 1 0 0 0-1 1 1 1 0 0 0 1 1h0.00977a1 1 0 0 0 1-1 1 1 0 0 0-1-1z" />
</svg>
