<svg version="1.1" viewBox="0 0 24 24" xmlns="http://www.w3.org/2000/svg">
  <desc>server,pc,cloud</desc>
  <path d="m4 1c-1.6447 0-3 1.3553-3 3v4c0 1.6447 1.3553 3 3 3h16c1.6447 0 3-1.3553 3-3v-4c0-1.6447-1.3553-3-3-3h-16zm0 2h16c0.5713 0 1 0.4287 1 1v4c0 0.5713-0.4287 1-1 1h-16c-0.5713 0-1-0.4287-1-1v-4c0-0.5713 0.4287-1 1-1zm2 2a1 1 0 0 0-1 1 1 1 0 0 0 1 1h0.0097656a1 1 0 0 0 1-1 1 1 0 0 0-1-1h-0.0097656zm-2 8c-1.6447 0-3 1.3553-3 3v4c0 1.6447 1.3553 3 3 3h16c1.6447 0 3-1.3553 3-3v-4c0-1.6447-1.3553-3-3-3h-16zm0 2h16c0.5713 0 1 0.4287 1 1v4c0 0.5713-0.4287 1-1 1h-16c-0.5713 0-1-0.4287-1-1v-4c0-0.5713 0.4287-1 1-1zm2 2a1 1 0 0 0-1 1 1 1 0 0 0 1 1h0.0097656a1 1 0 0 0 1-1 1 1 0 0 0-1-1h-0.0097656z" />
</svg>
