<svg version="1.1" viewBox="0 0 24 24" xmlns="http://www.w3.org/2000/svg">
  <desc>shower,bathroom,washroom</desc>
  <path d="m3.75 6.6676c0-0.85078 0.6918-1.5426 1.5426-1.5426 0.4082 0 0.79922 0.16328 1.0914 0.45117l0.69609 0.69609c-0.90234 1.6715-0.74766 3.7598 0.46836 5.2852l-0.060156 0.05586c-0.40391 0.40391-0.40391 1.057 0 1.4566 0.40391 0.39961 1.057 0.40391 1.4566 0l6.8793-6.8707c0.40391-0.40391 0.40391-1.057 0-1.4566s-1.057-0.40391-1.4566 0l-0.05586 0.05586c-1.5254-1.216-3.6137-1.3707-5.2852-0.46836l-0.70039-0.69609c-0.80352-0.80781-1.8949-1.259-3.0336-1.259-2.3719 0-4.2926 1.9207-4.2926 4.2926v13.582c0 0.76055 0.61445 1.375 1.375 1.375s1.375-0.61445 1.375-1.375zm8.25 9.4574a1.375 1.375 0 1 0 0-2.75 1.375 1.375 0 1 0 0 2.75m2.75 2.75a1.375 1.375 0 1 0-2.75 0 1.375 1.375 0 1 0 2.75 0m0-5.5a1.375 1.375 0 1 0 0-2.75 1.375 1.375 0 1 0 0 2.75m2.75 2.75a1.375 1.375 0 1 0-2.75 0 1.375 1.375 0 1 0 2.75 0m0-5.5a1.375 1.375 0 1 0 0-2.75 1.375 1.375 0 1 0 0 2.75m2.75 2.75a1.375 1.375 0 1 0-2.75 0 1.375 1.375 0 1 0 2.75 0m1.375-1.375a1.375 1.375 0 1 0 0-2.75 1.375 1.375 0 1 0 0 2.75" />
</svg>
