<svg version="1.1" viewBox="0 0 24 24" xmlns="http://www.w3.org/2000/svg">
  <desc>shower,bathroom,washroom</desc>
  <path d="m2.2221 1a1.2222 1.2222 0 0 0-0.86416 0.35807 1.2222 1.2222 0 0 0 0 1.7283l2.38 2.38c-0.80362 1.1019-1.4154 2.3516-1.5039 3.7622-0.092957 1.4814 0.48907 3.0098 1.4968 4.4234l-1.1506 1.1506a1.2222 1.2222 0 0 0 0 1.7283 1.2222 1.2222 0 0 0 1.7283 0l12.222-12.222a1.2222 1.2222 0 0 0 0-1.7283 1.2222 1.2222 0 0 0-1.7283 0l-1.1506 1.1506c-1.4137-1.0077-2.942-1.5897-4.4234-1.4968-1.4105 0.088508-2.6602 0.7003-3.7622 1.5039l-2.38-2.38a1.2222 1.2222 0 0 0-0.86416-0.35808zm7.1591 3.6739c0.83338-0.05225 1.6903 0.2503 2.5495 0.77822l-6.4788 6.4788c-0.52791-0.85917-0.83051-1.7161-0.77822-2.5495 0.07356-1.1723 0.64016-2.3255 1.5111-3.1964 0.87092-0.87092 2.0241-1.4375 3.1964-1.5111zm7.5077 3.6595a1.2222 1.2222 0 0 0-1.2222 1.2222v0.01199a1.2222 1.2222 0 0 0 1.2222 1.2222 1.2222 1.2222 0 0 0 1.2222-1.2222v-0.01199a1.2222 1.2222 0 0 0-1.2222-1.2222zm4.8889 1.2222a1.2222 1.2222 0 0 0-1.2222 1.2222v0.01199a1.2222 1.2222 0 0 0 1.2222 1.2222 1.2222 1.2222 0 0 0 1.2222-1.2222v-0.01199a1.2222 1.2222 0 0 0-1.2222-1.2222zm-8.5556 2.4445a1.2222 1.2222 0 0 0-1.2222 1.2222v0.01199a1.2222 1.2222 0 0 0 1.2222 1.2222 1.2222 1.2222 0 0 0 1.2222-1.2222v-0.01199a1.2222 1.2222 0 0 0-1.2222-1.2222zm4.8889 1.2222a1.2222 1.2222 0 0 0-1.2222 1.2222v0.01199a1.2222 1.2222 0 0 0 1.2222 1.2222 1.2222 1.2222 0 0 0 1.2222-1.2222v-0.01199a1.2222 1.2222 0 0 0-1.2222-1.2222zm-8.5556 2.4445a1.2222 1.2222 0 0 0-1.2222 1.2222v0.01199a1.2222 1.2222 0 0 0 1.2222 1.2222 1.2222 1.2222 0 0 0 1.2222-1.2222v-0.01199a1.2222 1.2222 0 0 0-1.2222-1.2222zm4.8889 1.2222a1.2222 1.2222 0 0 0-1.2222 1.2222v0.01199a1.2222 1.2222 0 0 0 1.2222 1.2222 1.2222 1.2222 0 0 0 1.2222-1.2222v-0.01199a1.2222 1.2222 0 0 0-1.2222-1.2222zm-3.6667 3.6667a1.2222 1.2222 0 0 0-1.2222 1.2222v0.01199a1.2222 1.2222 0 0 0 1.2222 1.2222 1.2222 1.2222 0 0 0 1.2222-1.2222v-0.01199a1.2222 1.2222 0 0 0-1.2222-1.2222z" />
</svg>
