<svg version="1.1" viewBox="0 0 24 24" xmlns="http://www.w3.org/2000/svg">
  <desc>living,room,bedroom,sofa</desc>
  <path d="m6 3c-1.645 0-3 1.355-3 3v2.1602c-0.37303 0.12244-0.7286 0.31583-1.0391 0.5918-0.58118 0.5166-0.96094 1.3314-0.96094 2.248v5c0 1.2566 0.8933 2.1406 2 2.584v1.416a1 1 0 0 0 1 1 1 1 0 0 0 1-1v-1h14v1a1 1 0 0 0 1 1 1 1 0 0 0 1-1v-1.416c1.1067-0.44339 2-1.3273 2-2.584v-5c0-0.91666-0.37976-1.7314-0.96094-2.248-0.31046-0.27597-0.66603-0.46935-1.0391-0.5918v-2.1602c0-1.645-1.355-3-3-3h-6-6zm0 2h5v7h-4v-1c0-0.91666-0.37976-1.7314-0.96094-2.248-0.31047-0.27597-0.66603-0.46935-1.0391-0.5918v-2.1602c0-0.56413 0.43587-1 1-1zm7 0h5c0.56413 0 1 0.43587 1 1v2.1602c-0.37303 0.12244-0.7286 0.31583-1.0391 0.5918-0.58118 0.5166-0.96094 1.3314-0.96094 2.248v1h-4v-7zm-9 5c0.27778 0 0.54212 0.09799 0.71094 0.24805 0.16882 0.15006 0.28906 0.33529 0.28906 0.75195v1.5c0 0.81658 0.68342 1.5 1.5 1.5h5.5 5.5c0.81658 0 1.5-0.68342 1.5-1.5v-1.5c0-0.41667 0.12025-0.60189 0.28906-0.75195 0.16882-0.15006 0.43316-0.24805 0.71094-0.24805s0.54212 0.09799 0.71094 0.24805c0.16882 0.15006 0.28906 0.33529 0.28906 0.75195v5c0 0.56413-0.43587 1-1 1h-16c-0.56413 0-1-0.43587-1-1v-5c0-0.41667 0.12024-0.60189 0.28906-0.75195s0.43316-0.24805 0.71094-0.24805z" />
</svg>
