<svg viewBox="0 0 24 24" xmlns="http://www.w3.org/2000/svg">
  <desc>laptop,computer,capacity</desc>
  <path d="m5.562 2.872c0.588-0.457 1.262-0.622 1.938-0.622h9c0.677 0 1.351 0.165 1.938 0.622 0.58 0.451 0.997 1.13 1.277 2.02l8e-3 0.023 2.537 10.3c0.314 0.623 0.49 1.331 0.49 2.08 0 2.42-1.863 4.455-4.25 4.455h-13c-2.387 0-4.25-2.036-4.25-4.456 0-0.748 0.176-1.456 0.49-2.078l2.537-10.3 8e-3 -0.024c0.28-0.89 0.698-1.569 1.277-2.02m-0.9601 9.8725c0.48586-0.22583 1.0151-0.3431 1.5509-0.34364h11.694c0.55414 0 1.0786 0.12324 1.5509 0.34364l-1.7506-7.1066c-0.19791-0.61441-0.44619-0.95085-0.68548-1.138-0.23659-0.18441-0.52895-0.27437-0.91397-0.27437h-8.0962c-0.38502 0-0.67738 0.089957-0.91397 0.27437-0.23929 0.18711-0.48847 0.52355-0.68548 1.1389zm1.4867 1.8612c-0.91582 0-1.7361 0.53294-2.1736 1.3596-0.2166 0.40929-0.32905 0.86564-0.3274 1.3287 0 1.5224 1.1559 2.6883 2.501 2.6883h11.823c1.3451 0 2.501-1.1659 2.501-2.6883 0.0016-0.46307-0.1108-0.91942-0.3274-1.3287-0.43745-0.82669-1.2578-1.3596-2.1736-1.3596zm4.4115 1.6443c0.41421 0 0.75 0.33579 0.75 0.75v1c0 1-1.5 1-1.5 0v-1c0-0.41421 0.33579-0.75 0.75-0.75m2.5 0c0.41421 0 0.75 0.33579 0.75 0.75v1c0 1-1.5 1-1.5 0v-1c0-0.41421 0.33579-0.75 0.75-0.75m2.5 0c0.41421 0 0.75 0.33579 0.75 0.75v1c0 1-1.5 1-1.5 0v-1c0-0.41421 0.33579-0.75 0.75-0.75m2.5 0c0.41421 0 0.75 0.33579 0.75 0.75v1c0 1-1.5 1-1.5 0v-1c0-0.41421 0.33579-0.75 0.75-0.75" />
</svg>
