<svg version="1.1" viewBox="0 0 24 24" xmlns="http://www.w3.org/2000/svg">
  <desc>tg,bot,messanger</desc>
  <path d="m12 0c-6.624 0-12 5.376-12 12s5.376 12 12 12 12-5.376 12-12-5.376-12-12-12m5.568 8.16c-0.18 1.896-0.96 6.504-1.356 8.628-0.168 0.9-0.504 1.2-0.816 1.236-0.696 0.06-1.224-0.456-1.896-0.9-1.056-0.696-1.656-1.128-2.676-1.8-1.188-0.78-0.42-1.212 0.264-1.908 0.18-0.18 3.252-2.976 3.312-3.228a0.24 0.24 0 0 0-0.06-0.216c-0.072-0.06-0.168-0.036-0.252-0.024-0.108 0.024-1.788 1.14-5.064 3.348-0.48 0.324-0.912 0.492-1.296 0.48-0.432-0.012-1.248-0.24-1.86-0.444-0.756-0.24-1.344-0.372-1.296-0.792 0.024-0.216 0.324-0.432 0.888-0.66 3.504-1.524 5.832-2.532 6.996-3.012 3.336-1.392 4.02-1.632 4.476-1.632 0.096 0 0.324 0.024 0.468 0.144 0.12 0.096 0.156 0.228 0.168 0.324-0.012 0.072 0.012 0.288 0 0.456" />
</svg>
