<svg version="1.1" viewBox="0 0 24 24" xmlns="http://www.w3.org/2000/svg">
  <desc>tg,bot,messanger</desc>
  <path d="m4.3636 0a4.3636 4.3636 0 0 0-4.3636 4.3636v15.273a4.3636 4.3636 0 0 0 4.3636 4.3636h15.273a4.3636 4.3636 0 0 0 4.3636-4.3636v-15.273a4.3636 4.3636 0 0 0-4.3636-4.3636zm16.364 12a8.7273 8.7273 0 1 1-17.455 0 8.7273 8.7273 0 0 1 17.455 0m-14.692-0.25746c0-0.08073 0.053454-0.15818 0.12873-0.18545l9.7778-3.7276a0.20727 0.20727 0 0 1 0.20182 0.037091c0.05455 0.046909 0.07854 0.12436 0.06218 0.19527l-1.9505 8.2015a0.19636 0.19636 0 0 1-0.12436 0.14073 0.19636 0.19636 0 0 1-0.18545-0.025091l-3.6818-2.9651 3.2858-2.9476a0.12 0.12 0 0 0 0.018545-0.15491 0.12 0.12 0 0 0-0.15164-0.039273l-4.8818 2.5211-2.3705-0.86509a0.20727 0.20727 0 0 1-0.12873-0.18546" />
</svg>
