<svg viewBox="0 0 24 24" xmlns="http://www.w3.org/2000/svg">
  <desc>sensor</desc>
  <path d="m7.008 22.187c-4.4273 5e-3 -6.6698-5.3278-3.5695-8.4883v-7.9315c0-4.7594 7.1391-4.7594 7.1391 0v7.9315c3.1003 3.1605 0.85775 8.4933-3.5695 8.4883m0-18.549c-1.1353 0.0011392-2.0554 0.92121-2.0565 2.0565v8.783l-0.22759 0.20497c-2.3467 2.0974-0.86274 5.9829 2.2841 5.9829 3.1469 0 4.6308-3.8855 2.2841-5.9829l-0.22759-0.20497v-8.783c-0.0011337-1.1353-0.92121-2.0554-2.0565-2.0565m0.71391 11.541v-5.8426h-1.4278v5.8426c-2.2717 0.80316-1.6915 4.1601 0.71391 4.1601s2.9856-3.357 0.71391-4.1601m7.1303-11.554c0 0.78373-0.63534 1.4191-1.4191 1.4191s-1.4191-0.63534-1.4191-1.4191c0-0.78373 0.63534-1.4191 1.4191-1.4191s1.4191 0.63534 1.4191 1.4191zm7.1478 9.9947h-4.2834c-0.78856 0-1.4278-0.63925-1.4278-1.4278v-7.1391c0-0.78856 0.63925-1.4278 1.4278-1.4278h4.2834v1.6067h-4.0865v6.6731h4.0865z" />
</svg>
