<svg version="1.1" viewBox="0 0 24 24" xmlns="http://www.w3.org/2000/svg">
  <desc>toilet,restroom,washroom</desc>
  <path d="m5 1c-1.645 0-3 1.355-3 3v9c0 2.4226 1.4535 4.5195 3.5312 5.4648l-1.4004 2.2402c-0.59679 0.95487 0.14546 2.2949 1.2715 2.2949h10.695c1.126 3e-6 1.8683-1.3401 1.2715-2.2949l-1.0996-1.7598c3.1708-0.14984 5.7305-2.7389 5.7305-5.9453 0-1.0927-0.90728-2-2-2h-4v-7c0-1.645-1.355-3-3-3zm0 2h8c0.56413 0 1 0.43587 1 1v7h-7a1 1 0 0 0-1 1 1 1 0 0 0 1 1h13c0 2.221-1.779 4-4 4h-0.59766c-1.126-3e-6 -1.8683 1.3401-1.2715 2.2949l1.0645 1.7051h-8.8906l1.2598-2.0176c0.14389 0.010433 0.2891 0.017578 0.43555 0.017578a1 1 0 0 0 1-1 1 1 0 0 0-1-1c-2.221 0-4-1.779-4-4v-9c0-0.56413 0.43587-1 1-1z" />
</svg>
