<svg version="1.1" viewBox="0 0 24 24" xmlns="http://www.w3.org/2000/svg">
  <desc>alert,warning,error,notify</desc>
  <path d="m11.99 2.0195c-1.0239-1e-7 -2.0471 0.4961-2.6094 1.4883v-0.00391l-8 14 0.00391-0.0039c-1.1363 1.9679 0.35274 4.5204 2.625 4.5h15.99a1.0001 1.0001 0 0 0 2e-3 0c2.2585-0.0023 3.7214-2.5394 2.5957-4.4961l-2e-3 -0.0039082-7.9961-13.992c-0.5623-0.99218-1.5855-1.4883-2.6094-1.4883zm0 1.9336c0.33308 0 0.6653 0.17938 0.86914 0.53906a1.0001 1.0001 0 0 0 2e-3 0.00391l8 14a1.0001 1.0001 0 0 0 2e-3 0.0039c0.40867 0.70784-0.04788 1.4992-0.86523 1.5h-15.998a1.0001 1.0001 0 0 0-0.00977 0c-0.82292 0.0074-1.2865-0.78732-0.875-1.5a1.0001 1.0001 0 0 0 0.00391-0.0039l8-14a1.0001 1.0001 0 0 0 0-0.00391c0.20384-0.35968 0.53801-0.53906 0.87109-0.53906zm0.009766 4.0469a1 1 0 0 0-1 1v4a1 1 0 0 0 1 1 1 1 0 0 0 1-1v-4a1 1 0 0 0-1-1zm0 8a1 1 0 0 0-1 1 1 1 0 0 0 1 1h0.0098a1 1 0 0 0 1-1 1 1 0 0 0-1-1z" />
</svg>
