<svg version="1.1" viewBox="0 0 24 24" xmlns="http://www.w3.org/2000/svg">
  <desc>settings,config</desc>
  <path d="m6 3c-0.55228 0-1 0.44772-1 1v3.1797c-1.1958 0.42279-1.9966 1.5519-2 2.8203 0.00343 1.2684 0.80416 2.3975 2 2.8203v7.1797c0 0.55228 0.44772 1 1 1s1-0.44772 1-1v-7.1797c1.1958-0.42279 1.9966-1.5519 2-2.8203-1.28e-4 -1.2712-0.80147-2.4044-2-2.8281v-3.1719c0-0.55228-0.44772-1-1-1zm6 0c-0.55228 0-1 0.44772-1 1v9.1797c-1.1958 0.42279-1.9966 1.5519-2 2.8203 0.00343 1.2684 0.80416 2.3975 2 2.8203v1.1797c0 0.55228 0.44772 1 1 1s1-0.44772 1-1v-1.1797c1.1958-0.42279 1.9966-1.5519 2-2.8203-1.28e-4 -1.2712-0.80147-2.4044-2-2.8281v-9.1719c0-0.55228-0.44772-1-1-1zm6 0c-0.55228 0-1 0.44772-1 1v0.17969c-1.1958 0.42279-1.9966 1.5519-2 2.8203 0.0034 1.2684 0.80416 2.3975 2 2.8203v2.1953c0 0.55228 0.44772 1 1 1s1-0.44772 1-1v-2.1953c1.1958-0.42279 1.9966-1.5519 2-2.8203-1.28e-4 -1.2712-0.80147-2.4044-2-2.8281v-0.17188c0-0.55228-0.44772-1-1-1zm0 3c0.55228 0 1 0.44772 1 1s-0.44772 1-1 1-1-0.44772-1-1 0.44772-1 1-1zm-12 3c0.55228 0 1 0.44772 1 1 0 0.55228-0.44772 1-1 1s-1-0.44772-1-1c0-0.55228 0.44772-1 1-1zm12.93 5.9766c-0.27649 0.010207-0.54966 0.15066-0.76172 0.46875l-2 3c-0.44284 0.66455 0.033444 1.5545 0.83203 1.5547h2.1309l-0.96289 1.4453c-0.32292 0.48388-0.19319 1.073 0.27734 1.3867 0.47053 0.31369 1.0804 0.18216 1.3867-0.27734l2-3c0.44284-0.66455-0.033446-1.5545-0.83203-1.5547h-2.1309l0.96289-1.4453c0.32677-0.49016 0.1641-1.0924-0.27734-1.3867-0.19313-0.12876-0.40996-0.19934-0.625-0.19141zm-6.9297 0.023438c0.55228 0 1 0.44772 1 1s-0.44772 1-1 1-1-0.44772-1-1 0.44772-1 1-1z" />
</svg>
