<svg version="1.1" viewBox="0 0 24 24" xmlns="http://www.w3.org/2000/svg">
  <path d="m6 3c-0.55228 0-1 0.44772-1 1v3.1797c-1.1958 0.42279-1.9966 1.5519-2 2.8203 0.00343 1.2684 0.80416 2.3975 2 2.8203v7.1797c0 0.55228 0.44772 1 1 1s1-0.44772 1-1v-7.1797c1.1958-0.42279 1.9966-1.5519 2-2.8203-1.28e-4 -1.2712-0.80147-2.4044-2-2.8281v-3.1719c0-0.55228-0.44772-1-1-1zm6 0c-0.55228 0-1 0.44772-1 1v9.1738c-0.17087 0.06039-0.33896 0.13554-0.5 0.22852-1.1717 0.67649-1.7486 2.0681-1.3984 3.375 0.26016 0.97094 0.98723 1.7248 1.8984 2.0488v1.1738c0 0.55228 0.44772 1 1 1s1-0.44772 1-1v-2c0-0.55245-0.42231-0.99997-1-1-0.50311 3e-5 -1-0.37561-1-1s0.50703-1 1-1c0.17698-0.0031 0.3223 0.027049 0.49219 0.12891 0.48088 0.27144 1.0898 0.10192 1.3613-0.37891 0.27144-0.48088 0.10192-1.0898-0.37891-1.3613-0.11988-0.09267-0.30161-0.16698-0.47461-0.21484v-9.1738c0-0.55228-0.44772-1-1-1zm6 0c-0.55228 0-1 0.44772-1 1v0.17969c-1.1958 0.42279-1.9966 1.5519-2 2.8203 0.0034 1.2684 0.80416 2.3975 2 2.8203v1.6895c0 0.55228 0.44772 1 1 1s1-0.44772 1-1v-1.6895c1.1958-0.42279 1.9966-1.5519 2-2.8203-1.28e-4 -1.2712-0.80147-2.4044-2-2.8281v-0.17188c0-0.55228-0.44772-1-1-1zm0 3c0.55228 0 1 0.44772 1 1s-0.44772 1-1 1-1-0.44772-1-1 0.44772-1 1-1zm-12 3c0.55228 0 1 0.44772 1 1 0 0.55228-0.44772 1-1 1s-1-0.44772-1-1c0-0.55228 0.44772-1 1-1zm12.969 5a1 1 0 0 0-1 1v0.64648a3.0305 3.0305 0 0 0-0.97852 0.55859l-0.55273-0.32031a1 1 0 0 0-1.3652 0.36523 1 1 0 0 0 0.36523 1.3652l0.56055 0.32227a3.0305 3.0305 0 0 0-0.060547 0.5625 3.0305 3.0305 0 0 0 0.060547 0.5625l-0.56055 0.32227a1 1 0 0 0-0.36523 1.3652 1 1 0 0 0 1.3652 0.36523l0.55273-0.32031a3.0305 3.0305 0 0 0 0.97852 0.55859v0.64648a1 1 0 0 0 1 1 1 1 0 0 0 1-1v-0.64648a3.0305 3.0305 0 0 0 0.97852-0.55859l0.55273 0.32031a1 1 0 0 0 1.3652-0.36523 1 1 0 0 0-0.36523-1.3652l-0.56055-0.32227a3.0305 3.0305 0 0 0 0.060547-0.5625 3.0305 3.0305 0 0 0-0.054688-0.56445l0.55469-0.32031a1 1 0 0 0 0.36523-1.3652 1 1 0 0 0-1.3652-0.36523l-0.55469 0.32031a3.0305 3.0305 0 0 0-0.97656-0.56641v-0.63867a1 1 0 0 0-1-1zm0 3a1.5 1.5 0 0 1 1.5 1.5 1.5 1.5 0 0 1-1.5 1.5 1.5 1.5 0 0 1-1.5-1.5 1.5 1.5 0 0 1 1.5-1.5z" />
</svg>
