<svg version="1.1" viewBox="0 0 24 24" xmlns="http://www.w3.org/2000/svg">
  <desc>settings,config</desc>
  <path d="m6 3c-0.55228 0-1 0.44772-1 1v3.1797c-1.1958 0.42279-1.9966 1.5519-2 2.8203 0.00343 1.2684 0.80416 2.3975 2 2.8203v7.1797c0 0.55228 0.44772 1 1 1s1-0.44772 1-1v-7.1797c1.1958-0.42279 1.9966-1.5519 2-2.8203-1.28e-4 -1.2712-0.80147-2.4044-2-2.8281v-3.1719c0-0.55228-0.44772-1-1-1zm6 0c-0.55228 0-1 0.44772-1 1v9.1738c-0.17087 0.06039-0.33896 0.13554-0.5 0.22852-1.1717 0.67649-1.7486 2.0681-1.3984 3.375 0.26016 0.97094 0.98723 1.7248 1.8984 2.0488v1.1738c0 0.55228 0.44772 1 1 1s1-0.44772 1-1v-2c0-0.55245-0.42231-0.99997-1-1-0.50311 3e-5 -1-0.37561-1-1s0.50703-1 1-1c0.24931 0 0.48842 0.07436 0.70703 0.29297 0.39051 0.39042 1.0236 0.39042 1.4141 0 0.39042-0.39051 0.39042-1.0236 0-1.4141-0.32328-0.32328-0.70832-0.55953-1.1211-0.70508v-9.1738c0-0.55228-0.44772-1-1-1zm6 0c-0.55228 0-1 0.44772-1 1v0.17969c-1.1958 0.42279-1.9966 1.5519-2 2.8203 0.0034 1.2684 0.80416 2.3975 2 2.8203v2.1953c0 0.55228 0.44772 1 1 1s1-0.44772 1-1v-2.1953c1.1958-0.42279 1.9966-1.5519 2-2.8203-1.28e-4 -1.2712-0.80147-2.4044-2-2.8281v-0.17188c0-0.55228-0.44772-1-1-1zm0 3c0.55228 0 1 0.44772 1 1s-0.44772 1-1 1-1-0.44772-1-1 0.44772-1 1-1zm-12 3c0.55228 0 1 0.44772 1 1s-0.44772 1-1 1-1-0.44772-1-1 0.44772-1 1-1zm13 6c-2.2091 0-4 1.7909-4 4s1.7909 4 4 4 4-1.7909 4-4-1.7909-4-4-4zm-2.0403 4.8233c-0.13328-0.27857-0.15631-0.63357-0.15994-0.82334 0-1.2152 1.0022-2.2002 2.2003-2.2002 0.19338 1.1e-5 0.63669 0.06096 0.82174 0.15954zm2.0403 1.3769c-0.18977-0.0036-0.66377-0.07287-0.82205-0.15865l2.8615-2.8646c0.16085 0.35428 0.15795 0.64101 0.16085 0.82295 0 1.2134-0.9851 2.2003-2.2003 2.2003z"/>
</svg>
