<svg version="1.1" viewBox="0 0 24 24" xmlns="http://www.w3.org/2000/svg">
  <desc>settings,config</desc>
  <path d="m3 2a1 1 0 0 0-0.70703 0.29297 1 1 0 0 0 0 1.4141l2.707 2.707v0.76562a3 3 0 0 0-2 2.8203 3 3 0 0 0 2 2.8203v7.1797a1 1 0 0 0 1 1 1 1 0 0 0 1-1v-7.1797a3 3 0 0 0 1.9531-2.4531l2.0469 2.0469v0.76563a3 3 0 0 0-2 2.8203 3 3 0 0 0 2 2.8203v1.1797a1 1 0 0 0 1 1 1 1 0 0 0 1-1v-1.1797a3 3 0 0 0 1.9531-2.4531l2.0469 2.0469v1.5859a1 1 0 0 0 1 1 1 1 0 0 0 0.93164-0.6543l1.3613 1.3613a1 1 0 0 0 1.4141 0 1 1 0 0 0 0-1.4141l-18-18a1 1 0 0 0-0.70703-0.29297zm9 1a1 1 0 0 0-1 1v2.7578l2 2v-4.7578a1 1 0 0 0-1-1zm6 0a1 1 0 0 0-1 1v0.17969a3 3 0 0 0-2 2.8203 3 3 0 0 0 2 2.8203v2.9375l2 2v-4.9375a3 3 0 0 0 2-2.8203 3 3 0 0 0-2-2.8281v-0.17188a1 1 0 0 0-1-1zm0 3a1 1 0 0 1 1 1 1 1 0 0 1-1 1 1 1 0 0 1-1-1 1 1 0 0 1 1-1zm-12 3a1 1 0 0 1 1 1 1 1 0 0 1-1 1 1 1 0 0 1-1-1 1 1 0 0 1 1-1zm6 6a1 1 0 0 1 1 1 1 1 0 0 1-1 1 1 1 0 0 1-1-1 1 1 0 0 1 1-1z"/>
</svg>
