<svg version="1.1" viewBox="0 0 24 24" xmlns="http://www.w3.org/2000/svg">
  <desc>settings,config</desc>
  <path d="m6 3a1 1 0 0 0-1 1v3.1797a3 3 0 0 0-2 2.8203 3 3 0 0 0 2 2.8203v7.1797a1 1 0 0 0 1 1 1 1 0 0 0 1-1v-7.1797a3 3 0 0 0 2-2.8203 3 3 0 0 0-2-2.8281v-3.1719a1 1 0 0 0-1-1zm6 0a1 1 0 0 0-1 1v9.1797a3 3 0 0 0-2 2.8203 3 3 0 0 0 2 2.8203v1.1797a1 1 0 0 0 1 1 1 1 0 0 0 1-1v-1.1797a3 3 0 0 0 2-2.8203 3 3 0 0 0-2-2.8281v-9.1719a1 1 0 0 0-1-1zm6 0a1 1 0 0 0-1 1v0.17969a3 3 0 0 0-2 2.8203 3 3 0 0 0 2 2.8203v10.18a1 1 0 0 0 1 1 1 1 0 0 0 1-1v-10.18a3 3 0 0 0 2-2.8203 3 3 0 0 0-2-2.8281v-0.17188a1 1 0 0 0-1-1zm0 3a1 1 0 0 1 1 1 1 1 0 0 1-1 1 1 1 0 0 1-1-1 1 1 0 0 1 1-1zm-12 3a1 1 0 0 1 1 1 1 1 0 0 1-1 1 1 1 0 0 1-1-1 1 1 0 0 1 1-1zm6 6a1 1 0 0 1 1 1 1 1 0 0 1-1 1 1 1 0 0 1-1-1 1 1 0 0 1 1-1z" />
</svg>
