<svg version="1.1" viewBox="0 0 24 24" xmlns="http://www.w3.org/2000/svg">
  <path d="m6 3c-0.55228 0-1 0.44772-1 1v3.1797c-1.1958 0.42279-1.9966 1.5519-2 2.8203 0.00343 1.2684 0.80416 2.3975 2 2.8203v7.1797c0 0.55228 0.44772 1 1 1s1-0.44772 1-1v-7.1797c1.1958-0.42279 1.9966-1.5519 2-2.8203-1.28e-4 -1.2712-0.80147-2.4044-2-2.8281v-3.1719c0-0.55228-0.44772-1-1-1zm6 0c-0.55228 0-1 0.44772-1 1v9.1738c-0.17087 0.06039-0.33896 0.13554-0.5 0.22852-1.1717 0.67649-1.7486 2.0681-1.3984 3.375 0.26016 0.97094 0.98727 1.7248 1.8984 2.0488v1.1738c0 0.55228 0.44772 1 1 1s1-0.44772 1-1v-2c0-0.55245-0.42231-0.99997-1-1-0.50311 3e-5 -1-0.37561-1-1s0.50703-1 1-1c0.24931 0 0.48842 0.074359 0.70703 0.29297 0.39051 0.39042 1.0236 0.39042 1.4141 0 0.39042-0.39051 0.39042-1.0236 0-1.4141-0.32328-0.32328-0.70831-0.55953-1.1211-0.70508v-9.1738c0-0.55228-0.44772-1-1-1zm6 0c-0.55228 0-1 0.44772-1 1v0.17969c-1.1958 0.42279-1.9966 1.5519-2 2.8203 0.0034 1.2684 0.80416 2.3975 2 2.8203v3.4707c0 0.55228 0.44772 1 1 1s1-0.44772 1-1v-3.4707c1.1958-0.42279 1.9966-1.5519 2-2.8203-1.28e-4 -1.2712-0.80147-2.4044-2-2.8281v-0.17188c0-0.55228-0.44772-1-1-1zm0 3c0.55228 0 1 0.44772 1 1s-0.44772 1-1 1-1-0.44772-1-1 0.44772-1 1-1zm-12 3c0.55228 0 1 0.44772 1 1 0 0.55228-0.44772 1-1 1s-1-0.44772-1-1c0-0.55228 0.44772-1 1-1zm11.213 7.3711c-0.19627 0.009289-0.40239 0.097704-0.59766 0.29297l-1.6992 1.6992c-0.35183 0.35156-0.35183 0.92188 0 1.2734l1.6992 1.6992c0.35154 0.35188 0.9219 0.35188 1.2734 0 0.35188-0.35154 0.35188-0.9219 0-1.2734l-1.0625-1.0625 1.0625-1.0625c0.35188-0.35154 0.35171-0.92173 0-1.2734-0.18643-0.18643-0.42344-0.30491-0.67578-0.29297zm3.1426 0c-0.22113 0.014361-0.42608 0.12726-0.5918 0.29297-0.35171 0.35171-0.35188 0.9219 0 1.2734l1.0625 1.0625-1.0625 1.0625c-0.35188 0.35154-0.35188 0.9219 0 1.2734 0.35154 0.35188 0.91994 0.35188 1.2715 0l1.7012-1.6992c0.35183-0.35156 0.35183-0.92188 0-1.2734l-1.7012-1.6992c-0.22316-0.22316-0.45856-0.30733-0.67969-0.29297z"/>
</svg>
