<svg version="1.1" viewBox="0 0 24 24" xmlns="http://www.w3.org/2000/svg">
  <path d="m12 1c-7.0714 0-11 3.9277-11 9.4277 0 7.8571 8.6429 12.572 11 12.572 2.3571 0 11-4.7151 11-12.572 0-5.5-3.9286-9.4277-11-9.4277zm0 2.3574c3.1114 0 5.2491 0.85964 6.5801 2.0508 1.309 1.1707 2.0625 2.8592 2.0625 5.0215 0 3.0093-1.6537 5.5615-3.8145 7.4629-0.95716 0.84448-2.0203 1.5623-3.1602 2.1367-0.39409 0.19858-0.80289 0.36579-1.2227 0.50195-0.26871 0.08486-0.41074 0.10663-0.44531 0.11133-0.034571-0.004714-0.17817-0.026468-0.44531-0.11133-0.41976-0.13616-0.82857-0.30337-1.2227-0.50195-1.1399-0.57442-2.203-1.2922-3.1602-2.1367-2.1607-1.9014-3.8145-4.4536-3.8145-7.4629 0-2.1607 0.7535-3.8508 2.0625-5.0215 1.331-1.1911 3.4687-2.0508 6.5801-2.0508zm-5.5 6.2852c-0.65091 0-1.1777 0.52878-1.1777 1.1797 0 1.3231 0.54055 2.4402 1.4473 3.207 0.88628 0.75114 2.0556 1.1133 3.2656 1.1133 0.65091 0 1.1797-0.52683 1.1797-1.1777 0-1.3231-0.54251-2.4402-1.4492-3.207-0.88629-0.75114-2.0556-1.1152-3.2656-1.1152zm11 0c-1.21 0-2.3793 0.36252-3.2656 1.1152-0.90671 0.76686-1.4492 1.8839-1.4492 3.207 0 0.65091 0.52878 1.1777 1.1797 1.1777 1.21 0 2.3793-0.36214 3.2656-1.1133 0.90671-0.76686 1.4473-1.8839 1.4473-3.207 0-0.65091-0.52683-1.1797-1.1777-1.1797z" />
</svg>
