<svg viewBox="0 0 24 24" xmlns="http://www.w3.org/2000/svg">
  <desc>laptop,computer,on,power</desc>
  <path d="m12 5.75a1.25 1.25 0 0 0-1.25 1.25v5a1.2501 1.2501 0 0 0 0.36523 0.88477l2.5 2.5a1.25 1.25 0 0 0 1.7695 0 1.25 1.25 0 0 0 0-1.7695l-2.1348-2.1328v-4.4824a1.25 1.25 0 0 0-1.25-1.25zm1.373-3.9121c-2.9541-0.41051-6.1441 0.44116-8.6152 2.9082-3.2948 3.2894-3.7215 7.8591-2.1094 11.451 1.6122 3.592 5.3107 6.3111 9.959 6.0352a1.25 1.25 0 0 0 1.1738-1.3223 1.25 1.25 0 0 0-1.3223-1.1738c-3.6197 0.21486-6.2976-1.818-7.5293-4.5625-1.2317-2.7445-0.96989-6.0969 1.5957-8.6582 2.5656-2.5613 5.9178-2.8164 8.6602-1.5801 2.7424 1.2363 4.7697 3.9178 4.5488 7.5371a1.25 1.25 0 0 0 1.1719 1.3223 1.25 1.25 0 0 0 1.3242-1.1699c0.28362-4.6478-2.4282-8.3506-6.0176-9.9688-0.89734-0.40453-1.8551-0.68152-2.8398-0.81836zm5.627 13.162a1 1 0 0 0-1 1v6a1 1 0 0 0 1 1 1 1 0 0 0 1-1v-6a1 1 0 0 0-1-1zm-0.70703 0.29297-3 3a1 1 0 0 0 0 1.4141 1 1 0 0 0 1.4141 0l2.293-2.293 2.293 2.293a1 1 0 0 0 1.4141 0 1 1 0 0 0 0-1.4141l-3-3a1.0001 1.0001 0 0 0-1.4141 0z" />
</svg>
