<svg version="1.1" viewBox="0 0 24 24" xmlns="http://www.w3.org/2000/svg">
  <desc>kitchen,cooking,utensils</desc>
  <path d="m15.293 1.293-2.3008 2.3008a1.0001 1.0001 0 0 0-0.0059 0.00586c-1.5168 1.5474-1.5168 4.0522 0 5.5996a1.0001 1.0001 0 0 0 0.0059 0.00781l0.19336 0.19336-1.1855 1.1855-7.9922-7.9922a1.0001 1.0001 0 0 0-1.4082-0.00781c-2.072 2.0301-2.072 5.3976 0 7.4277l4.9844 4.9844-6.1855 6.0898a1 1 0 0 0-0.011719 1.4141 1 1 0 0 0 1.4141 0.0098l6.1973-6.0996 0.89453 0.89453c1.1377 1.1377 2.962 1.1004 4.166 0.04687a1.0001 1.0001 0 0 0 0.04883-0.04687l0.89258-0.89262 6.293 6.293a1 1 0 0 0 1.4141 0 1 1 0 0 0 0-1.4141l-9.293-9.293 1.1855-1.1855 0.19336 0.19336a1.0001 1.0001 0 0 0 0.0078 0.0059c1.5474 1.5168 4.0522 1.5168 5.5996 0a1.0001 1.0001 0 0 0 0.0059-0.0059l2.3008-2.3008a1 1 0 0 0 0-1.4141 1 1 0 0 0-1.4141 0l-2.293 2.293c-0.78563 0.77007-2.0152 0.77007-2.8008 0l-0.18555-0.18555 3.6934-3.6934a1 1 0 0 0 0-1.4141 1 1 0 0 0-1.4141 0l-3.6934 3.6934-0.18555-0.18555c-0.77007-0.78563-0.77007-2.0152 0-2.8008l2.293-2.293a1 1 0 0 0 0-1.4141 1 1 0 0 0-1.4141 0zm-11.857 3.5566 10.15 10.15-0.84961 0.84961c-0.39733 0.34221-1.1684 0.30423-1.4297 0.04297l-7.2988-7.2988a1.0001 1.0001 0 0 0-0.0078125-0.0078125c-1.038-1.0171-1.1975-2.5219-0.56445-3.7363z" />
</svg>
