<svg version="1.1" viewBox="0 0 24 24" xmlns="http://www.w3.org/2000/svg">
   <desc>kitchen,cooking,utensils</desc>
  <path d="m3 1a1 1 0 0 0-1 1v7c0 1.6455 1.3545 3 3 3h1v10a1 1 0 0 0 1 1 1 1 0 0 0 1-1v-10h1c1.645 0 3-1.355 3-3v-7a1 1 0 0 0-1-1 1 1 0 0 0-1 1v7c0 0.56413-0.43587 1-1 1h-1v-8a1 1 0 0 0-1-1 1 1 0 0 0-1 1v8h-1c-0.55454 0-1-0.44546-1-1v-7a1 1 0 0 0-1-1zm18 0c-3.3019 0-6 2.6981-6 6v6c0 1.6455 1.3545 3 3 3h2v6a1 1 0 0 0 1 1 1 1 0 0 0 1-1v-20a1.0001 1.0001 0 0 0-1-1zm-1 2.1992v10.801h-2c-0.55454 0-1-0.44546-1-1v-6c0-1.8657 1.2819-3.3514 3-3.8008z" />
</svg>
